<svg width="39" height="7" viewBox="0 0 39 7" fill="none" xmlns="http://www.w3.org/2000/svg">
<path d="M11.504 5.68209L9.38373 6.7253L9.72104 4.459C9.22243 3.99583 8.74798 3.50755 8.29952 2.9961L8.09473 2.76826L10.4077 2.38456L11.504 0.286133L12.6002 2.38456L14.9373 2.76826L13.2748 4.459L13.6242 6.78526L11.504 5.68209Z" fill="#191919" fill-opacity="0.5"/>
<path d="M3.79376 5.68197L1.67353 6.72518L2.01084 4.45888C1.51223 3.99571 1.03777 3.50743 0.589317 2.99597L0.384521 2.76814L2.69751 2.38444L3.79376 0.286011L4.89002 2.38444L7.2271 2.76814L5.56464 4.45888L5.914 6.78514L3.79376 5.68197Z" fill="#191919" fill-opacity="0.5"/>
<path d="M4.99831 2.36047L4.33574 0.226074L4.07071 0.597793L3.14311 2.36047H1.36018L1.19153 2.64826L1.36018 2.84011C2.11913 3.69147 2.43235 4.03922 2.56486 4.12315L2.27574 6.04171L4.07071 5.15438L5.86568 6.04171L6.19095 5.86185L5.57656 4.07518L6.97399 2.64826L4.99831 2.36047Z" fill="#EB8F0F"/>
<path d="M4.33563 4.98651L2.48042 5.89782L2.78159 3.91931C2.61294 3.77542 2.26358 3.4037 1.57691 2.64826L1.34802 2.39645L3.37188 2.04871L4.32358 0.226074L5.28732 2.04871L7.32323 2.39645L5.87762 3.87134L6.17879 5.89782L4.33563 4.98651Z" fill="#FFFF5A"/>
<path d="M4.33585 4.93865L2.54088 5.81401L2.83 3.90742C2.68544 3.78751 2.38427 3.46375 1.62532 2.61239L1.45667 2.42055L3.40825 2.09679L4.33585 0.334106L5.26345 2.09679L7.23912 2.43253L5.82965 3.84748L6.13082 5.81401L4.33585 4.93865Z" fill="#FFE22A"/>
<path d="M4.66108 1.25745L4.33581 0.633911L3.95032 1.37735L4.66108 1.25745Z" fill="#FFB10F"/>
<path d="M4.8057 1.5332L3.73353 1.78502L3.50464 2.22868L1.73376 2.52846L2.60113 3.47574L5.1671 2.27664L4.8057 1.5332Z" fill="#FFFF5A"/>
<path d="M6.34752 2.42053L2.72144 5.57416L4.33571 4.77076L5.94998 5.57416L5.68495 3.79949L6.93781 2.51646L6.34752 2.42053Z" fill="#FFB10F"/>
<path d="M19.2138 5.68209L17.0936 6.7253L17.4309 4.459C16.9323 3.99583 16.4578 3.50755 16.0094 2.9961L15.8046 2.76826L18.1175 2.38456L19.2138 0.286133L20.3101 2.38456L22.6471 2.76826L20.9967 4.459L21.334 6.78526L19.2138 5.68209Z" fill="#191919" fill-opacity="0.5"/>
<path d="M26.9235 5.68209L24.7912 6.7253L25.1285 4.459C24.6299 3.99583 24.1554 3.50755 23.707 2.9961L23.5022 2.76826L25.8152 2.38456L26.9235 0.286133L28.0197 2.38456L30.3448 2.76826L28.6944 4.459L29.0437 6.78526L26.9235 5.68209Z" fill="#191919" fill-opacity="0.5"/>
<path d="M34.6337 5.68209L32.5135 6.7253L32.8508 4.459C32.3522 3.99583 31.8777 3.50755 31.4293 2.9961L31.2245 2.76826L33.5375 2.38456L34.6337 0.286133L35.73 2.38456L38.0671 2.76826L36.4167 4.459L36.754 6.78526L34.6337 5.68209Z" fill="#191919" fill-opacity="0.5"/>
</svg>
