<svg width="39" height="7" viewBox="0 0 39 7" fill="none" xmlns="http://www.w3.org/2000/svg">
<path d="M3.79376 5.68197L1.67353 6.72518L2.01084 4.45888C1.51223 3.99571 1.03777 3.50743 0.589317 2.99597L0.384521 2.76814L2.69751 2.38444L3.79376 0.286011L4.89002 2.38444L7.2271 2.76814L5.56464 4.45888L5.914 6.78514L3.79376 5.68197Z" fill="#191919" fill-opacity="0.5"/>
<path d="M4.99831 2.36047L4.33574 0.226074L4.07071 0.597793L3.14311 2.36047H1.36018L1.19153 2.64826L1.36018 2.84011C2.11913 3.69147 2.43235 4.03922 2.56486 4.12315L2.27574 6.04171L4.07071 5.15438L5.86568 6.04171L6.19095 5.86185L5.57656 4.07518L6.97399 2.64826L4.99831 2.36047Z" fill="#EB8F0F"/>
<path d="M4.33563 4.98651L2.48042 5.89782L2.78159 3.91931C2.61294 3.77542 2.26358 3.4037 1.57691 2.64826L1.34802 2.39645L3.37188 2.04871L4.32358 0.226074L5.28732 2.04871L7.32323 2.39645L5.87762 3.87134L6.17879 5.89782L4.33563 4.98651Z" fill="#FFFF5A"/>
<path d="M4.33585 4.93865L2.54088 5.81401L2.83 3.90742C2.68544 3.78751 2.38427 3.46375 1.62532 2.61239L1.45667 2.42055L3.40825 2.09679L4.33585 0.334106L5.26345 2.09679L7.23912 2.43253L5.82965 3.84748L6.13082 5.81401L4.33585 4.93865Z" fill="#FFE22A"/>
<path d="M4.66108 1.25745L4.33581 0.633911L3.95032 1.37735L4.66108 1.25745Z" fill="#FFB10F"/>
<path d="M4.8057 1.5332L3.73353 1.78502L3.50464 2.22868L1.73376 2.52846L2.60113 3.47574L5.1671 2.27664L4.8057 1.5332Z" fill="#FFFF5A"/>
<path d="M6.34752 2.42053L2.72144 5.57416L4.33571 4.77076L5.94998 5.57416L5.68495 3.79949L6.93781 2.51646L6.34752 2.42053Z" fill="#FFB10F"/>
<path d="M11.7938 5.68197L9.67353 6.72518L10.0108 4.45888C9.51223 3.99571 9.03777 3.50743 8.58932 2.99597L8.38452 2.76814L10.6975 2.38444L11.7938 0.286011L12.89 2.38444L15.2271 2.76814L13.5646 4.45888L13.914 6.78514L11.7938 5.68197Z" fill="#191919" fill-opacity="0.5"/>
<path d="M12.9983 2.36047L12.3357 0.226074L12.0707 0.597793L11.1431 2.36047H9.36018L9.19153 2.64826L9.36018 2.84011C10.1191 3.69147 10.4323 4.03922 10.5649 4.12315L10.2757 6.04171L12.0707 5.15438L13.8657 6.04171L14.1909 5.86185L13.5766 4.07518L14.974 2.64826L12.9983 2.36047Z" fill="#EB8F0F"/>
<path d="M12.3356 4.98651L10.4804 5.89782L10.7816 3.91931C10.6129 3.77542 10.2636 3.4037 9.57691 2.64826L9.34802 2.39645L11.3719 2.04871L12.3236 0.226074L13.2873 2.04871L15.3232 2.39645L13.8776 3.87134L14.1788 5.89782L12.3356 4.98651Z" fill="#FFFF5A"/>
<path d="M12.3358 4.93865L10.5409 5.81401L10.83 3.90742C10.6854 3.78751 10.3843 3.46375 9.62532 2.61239L9.45667 2.42055L11.4082 2.09679L12.3358 0.334106L13.2635 2.09679L15.2391 2.43253L13.8296 3.84748L14.1308 5.81401L12.3358 4.93865Z" fill="#FFE22A"/>
<path d="M12.6611 1.25745L12.3358 0.633911L11.9503 1.37735L12.6611 1.25745Z" fill="#FFB10F"/>
<path d="M12.8057 1.5332L11.7335 1.78502L11.5046 2.22868L9.73376 2.52846L10.6011 3.47574L13.1671 2.27664L12.8057 1.5332Z" fill="#FFFF5A"/>
<path d="M14.3475 2.42053L10.7214 5.57416L12.3357 4.77076L13.95 5.57416L13.6849 3.79949L14.9378 2.51646L14.3475 2.42053Z" fill="#FFB10F"/>
<path d="M19.6712 5.68209L17.551 6.7253L17.8883 4.459C17.3897 3.99583 16.9152 3.50755 16.4668 2.9961L16.262 2.76826L18.5749 2.38456L19.6712 0.286133L20.7675 2.38456L23.1045 2.76826L21.4541 4.459L21.7914 6.78526L19.6712 5.68209Z" fill="#191919" fill-opacity="0.5"/>
<path d="M27.5258 5.68209L25.3935 6.7253L25.7308 4.459C25.2322 3.99583 24.7577 3.50755 24.3093 2.9961L24.1045 2.76826L26.4175 2.38456L27.5258 0.286133L28.622 2.38456L30.9471 2.76826L29.2967 4.459L29.646 6.78526L27.5258 5.68209Z" fill="#191919" fill-opacity="0.5"/>
<path d="M35.3564 5.68209L33.2361 6.7253L33.5735 4.459C33.0749 3.99583 32.6004 3.50755 32.1519 2.9961L31.9471 2.76826L34.2601 2.38456L35.3564 0.286133L36.4526 2.38456L38.7897 2.76826L37.1393 4.459L37.4766 6.78526L35.3564 5.68209Z" fill="#191919" fill-opacity="0.5"/>
</svg>
