<svg width="39" height="7" viewBox="0 0 39 7" fill="none" xmlns="http://www.w3.org/2000/svg">
<path d="M3.79376 5.68197L1.67353 6.72518L2.01084 4.45888C1.51223 3.99571 1.03777 3.50743 0.589317 2.99597L0.384521 2.76814L2.69751 2.38444L3.79376 0.286011L4.89002 2.38444L7.2271 2.76814L5.56464 4.45888L5.914 6.78514L3.79376 5.68197Z" fill="#191919" fill-opacity="0.5"/>
<path d="M4.99831 2.36047L4.33574 0.226074L4.07071 0.597793L3.14311 2.36047H1.36018L1.19153 2.64826L1.36018 2.84011C2.11913 3.69147 2.43235 4.03922 2.56486 4.12315L2.27574 6.04171L4.07071 5.15438L5.86568 6.04171L6.19095 5.86185L5.57656 4.07518L6.97399 2.64826L4.99831 2.36047Z" fill="#EB8F0F"/>
<path d="M4.33563 4.98651L2.48042 5.89782L2.78159 3.91931C2.61294 3.77542 2.26358 3.4037 1.57691 2.64826L1.34802 2.39645L3.37188 2.04871L4.32358 0.226074L5.28732 2.04871L7.32323 2.39645L5.87762 3.87134L6.17879 5.89782L4.33563 4.98651Z" fill="#FFFF5A"/>
<path d="M4.33585 4.93865L2.54088 5.81401L2.83 3.90742C2.68544 3.78751 2.38427 3.46375 1.62532 2.61239L1.45667 2.42055L3.40825 2.09679L4.33585 0.334106L5.26345 2.09679L7.23912 2.43253L5.82965 3.84748L6.13082 5.81401L4.33585 4.93865Z" fill="#FFE22A"/>
<path d="M4.66108 1.25745L4.33581 0.633911L3.95032 1.37735L4.66108 1.25745Z" fill="#FFB10F"/>
<path d="M4.8057 1.5332L3.73353 1.78502L3.50464 2.22868L1.73376 2.52846L2.60113 3.47574L5.1671 2.27664L4.8057 1.5332Z" fill="#FFFF5A"/>
<path d="M6.34752 2.42053L2.72144 5.57416L4.33571 4.77076L5.94998 5.57416L5.68495 3.79949L6.93781 2.51646L6.34752 2.42053Z" fill="#FFB10F"/>
<path d="M11.7938 5.68197L9.67353 6.72518L10.0108 4.45888C9.51223 3.99571 9.03777 3.50743 8.58932 2.99597L8.38452 2.76814L10.6975 2.38444L11.7938 0.286011L12.89 2.38444L15.2271 2.76814L13.5646 4.45888L13.914 6.78514L11.7938 5.68197Z" fill="#191919" fill-opacity="0.5"/>
<path d="M12.9983 2.36047L12.3357 0.226074L12.0707 0.597793L11.1431 2.36047H9.36018L9.19153 2.64826L9.36018 2.84011C10.1191 3.69147 10.4323 4.03922 10.5649 4.12315L10.2757 6.04171L12.0707 5.15438L13.8657 6.04171L14.1909 5.86185L13.5766 4.07518L14.974 2.64826L12.9983 2.36047Z" fill="#EB8F0F"/>
<path d="M12.3356 4.98651L10.4804 5.89782L10.7816 3.91931C10.6129 3.77542 10.2636 3.4037 9.57691 2.64826L9.34802 2.39645L11.3719 2.04871L12.3236 0.226074L13.2873 2.04871L15.3232 2.39645L13.8776 3.87134L14.1788 5.89782L12.3356 4.98651Z" fill="#FFFF5A"/>
<path d="M12.3358 4.93865L10.5409 5.81401L10.83 3.90742C10.6854 3.78751 10.3843 3.46375 9.62532 2.61239L9.45667 2.42055L11.4082 2.09679L12.3358 0.334106L13.2635 2.09679L15.2391 2.43253L13.8296 3.84748L14.1308 5.81401L12.3358 4.93865Z" fill="#FFE22A"/>
<path d="M12.6611 1.25745L12.3358 0.633911L11.9503 1.37735L12.6611 1.25745Z" fill="#FFB10F"/>
<path d="M12.8057 1.5332L11.7335 1.78502L11.5046 2.22868L9.73376 2.52846L10.6011 3.47574L13.1671 2.27664L12.8057 1.5332Z" fill="#FFFF5A"/>
<path d="M14.3475 2.42053L10.7214 5.57416L12.3357 4.77076L13.95 5.57416L13.6849 3.79949L14.9378 2.51646L14.3475 2.42053Z" fill="#FFB10F"/>
<path d="M19.7938 5.68197L17.6735 6.72518L18.0108 4.45888C17.5122 3.99571 17.0378 3.50743 16.5893 2.99597L16.3845 2.76814L18.6975 2.38444L19.7938 0.286011L20.89 2.38444L23.2271 2.76814L21.5646 4.45888L21.914 6.78514L19.7938 5.68197Z" fill="#191919" fill-opacity="0.5"/>
<path d="M20.9983 2.36047L20.3357 0.226074L20.0707 0.597793L19.1431 2.36047H17.3602L17.1915 2.64826L17.3602 2.84011C18.1191 3.69147 18.4323 4.03922 18.5649 4.12315L18.2757 6.04171L20.0707 5.15438L21.8657 6.04171L22.1909 5.86185L21.5766 4.07518L22.974 2.64826L20.9983 2.36047Z" fill="#EB8F0F"/>
<path d="M20.3356 4.98651L18.4804 5.89782L18.7816 3.91931C18.6129 3.77542 18.2636 3.4037 17.5769 2.64826L17.348 2.39645L19.3719 2.04871L20.3236 0.226074L21.2873 2.04871L23.3232 2.39645L21.8776 3.87134L22.1788 5.89782L20.3356 4.98651Z" fill="#FFFF5A"/>
<path d="M20.3358 4.93865L18.5409 5.81401L18.83 3.90742C18.6854 3.78751 18.3843 3.46375 17.6253 2.61239L17.4567 2.42055L19.4082 2.09679L20.3358 0.334106L21.2635 2.09679L23.2391 2.43253L21.8296 3.84748L22.1308 5.81401L20.3358 4.93865Z" fill="#FFE22A"/>
<path d="M20.6611 1.25745L20.3358 0.633911L19.9503 1.37735L20.6611 1.25745Z" fill="#FFB10F"/>
<path d="M20.8057 1.5332L19.7335 1.78502L19.5046 2.22868L17.7338 2.52846L18.6011 3.47574L21.1671 2.27664L20.8057 1.5332Z" fill="#FFFF5A"/>
<path d="M22.3475 2.42053L18.7214 5.57416L20.3357 4.77076L21.95 5.57416L21.6849 3.79949L22.9378 2.51646L22.3475 2.42053Z" fill="#FFB10F"/>
<path d="M27.7938 5.68197L25.6735 6.72518L26.0108 4.45888C25.5122 3.99571 25.0378 3.50743 24.5893 2.99597L24.3845 2.76814L26.6975 2.38444L27.7938 0.286011L28.89 2.38444L31.2271 2.76814L29.5646 4.45888L29.914 6.78514L27.7938 5.68197Z" fill="#191919" fill-opacity="0.5"/>
<path d="M28.9983 2.36047L28.3357 0.226074L28.0707 0.597793L27.1431 2.36047H25.3602L25.1915 2.64826L25.3602 2.84011C26.1191 3.69147 26.4323 4.03922 26.5649 4.12315L26.2757 6.04171L28.0707 5.15438L29.8657 6.04171L30.1909 5.86185L29.5766 4.07518L30.974 2.64826L28.9983 2.36047Z" fill="#EB8F0F"/>
<path d="M28.3356 4.98651L26.4804 5.89782L26.7816 3.91931C26.6129 3.77542 26.2636 3.4037 25.5769 2.64826L25.348 2.39645L27.3719 2.04871L28.3236 0.226074L29.2873 2.04871L31.3232 2.39645L29.8776 3.87134L30.1788 5.89782L28.3356 4.98651Z" fill="#FFFF5A"/>
<path d="M28.3358 4.93865L26.5409 5.81401L26.83 3.90742C26.6854 3.78751 26.3843 3.46375 25.6253 2.61239L25.4567 2.42055L27.4082 2.09679L28.3358 0.334106L29.2635 2.09679L31.2391 2.43253L29.8296 3.84748L30.1308 5.81401L28.3358 4.93865Z" fill="#FFE22A"/>
<path d="M28.6611 1.25745L28.3358 0.633911L27.9503 1.37735L28.6611 1.25745Z" fill="#FFB10F"/>
<path d="M28.8057 1.5332L27.7335 1.78502L27.5046 2.22868L25.7338 2.52846L26.6011 3.47574L29.1671 2.27664L28.8057 1.5332Z" fill="#FFFF5A"/>
<path d="M30.3475 2.42053L26.7214 5.57416L28.3357 4.77076L29.95 5.57416L29.6849 3.79949L30.9378 2.51646L30.3475 2.42053Z" fill="#FFB10F"/>
<path d="M35.3564 5.68209L33.2361 6.7253L33.5735 4.459C33.0749 3.99583 32.6004 3.50755 32.1519 2.9961L31.9471 2.76826L34.2601 2.38456L35.3564 0.286133L36.4526 2.38456L38.7897 2.76826L37.1393 4.459L37.4766 6.78526L35.3564 5.68209Z" fill="#191919" fill-opacity="0.5"/>
</svg>
