<svg width="17" height="16" viewBox="0 0 17 16" fill="none" xmlns="http://www.w3.org/2000/svg">
<path d="M8.24234 12.7451L3.48987 15.0943L4.24594 9.99079C3.12832 8.94777 2.06483 7.84822 1.05963 6.69646L0.600586 6.1834L5.7851 5.31934L8.24234 0.593872L10.6996 5.31934L15.9381 6.1834L12.2117 9.99079L12.9948 15.2293L8.24234 12.7451Z" fill="#191919" fill-opacity="0.5"/>
<path d="M10.9423 5.26537L9.45712 0.458893L8.86306 1.29597L6.78385 5.26537H2.78746L2.40942 5.91344L2.78746 6.34546C4.48863 8.26265 5.1907 9.04574 5.48773 9.23476L4.83966 13.5552L8.86306 11.557L12.8865 13.5552L13.6155 13.1501L12.2384 9.12673L15.3707 5.91344L10.9423 5.26537Z" fill="#EB8F0F"/>
<path d="M9.45692 11.179L5.29851 13.2311L5.97357 8.77572C5.59554 8.45169 4.81246 7.61461 3.27331 5.91344L2.76025 5.34637L7.2967 4.56331L9.42991 0.458893L11.5901 4.56331L16.1536 5.34637L12.9133 8.66769L13.5883 13.2311L9.45692 11.179Z" fill="#FFFF5A"/>
<path d="M9.4573 11.071L5.4339 13.0422L6.08197 8.74878C5.75793 8.47875 5.08287 7.74968 3.3817 5.83249L3.00366 5.40048L7.3781 4.67139L9.4573 0.701996L11.5365 4.67139L15.9649 5.42746L12.8056 8.6138L13.4807 13.0422L9.4573 11.071Z" fill="#FFE22A"/>
<path d="M10.1864 2.7812L9.45735 1.37704L8.59326 3.0512L10.1864 2.7812Z" fill="#FFB10F"/>
<path d="M10.5104 3.40228L8.1072 3.96936L7.59415 4.96844L3.62476 5.64351L5.56895 7.7767L11.3205 5.07644L10.5104 3.40228Z" fill="#FFFF5A"/>
<path d="M13.9667 5.40042L5.83887 12.5021L9.45723 10.6929L13.0756 12.5021L12.4815 8.50571L15.2898 5.61645L13.9667 5.40042Z" fill="#FFB10F"/>
</svg>
