<svg width="8" height="7" viewBox="0 0 8 7" fill="none" xmlns="http://www.w3.org/2000/svg">
<path d="M3.92347 5.68209L1.79119 6.7253L2.1285 4.459C1.62989 3.99583 1.15543 3.50755 0.706978 2.9961L0.502182 2.76826L2.81517 2.38456L3.92347 0.286133L5.01973 2.38456L7.34476 2.76826L5.69435 4.459L6.04371 6.78526L3.92347 5.68209Z" fill="#191919" fill-opacity="0.5"/>
<path d="M5.12846 2.3606L4.45384 0.226196L4.23699 0.597915L3.30939 2.3606H1.51442L1.34576 2.64839L1.52647 2.84023C1.90458 3.28914 2.30672 3.71744 2.73114 4.12328L2.42997 6.04183L4.23699 5.1545L6.01992 6.04183L6.34518 5.86197L5.7308 4.0753L7.12822 2.64839L5.12846 2.3606Z" fill="#EB8F0F"/>
<path d="M4.45357 4.98663L2.61041 5.89794L2.89953 3.91943C2.74292 3.77554 2.39357 3.40382 1.69485 2.64839L1.45392 2.39657L3.47778 2.04884L4.42947 0.226196L5.39322 2.04884L7.42913 2.39657L5.98351 3.87146L6.28468 5.89794L4.45357 4.98663Z" fill="#FFFF5A"/>
<path d="M4.45377 4.93865L2.67084 5.81401L2.94792 3.90742C2.8154 3.78751 2.50219 3.46375 1.74324 2.61239L1.57458 2.42055L3.53821 2.09679L4.45377 0.334106L5.38137 2.09679L7.35704 2.43253L5.95962 3.84748L6.24874 5.81401L4.45377 4.93865Z" fill="#FFE22A"/>
<path d="M4.7911 1.25745L4.46584 0.633911L4.0683 1.37735L4.7911 1.25745Z" fill="#FFB10F"/>
<path d="M4.92349 1.5332L3.85133 1.78502L3.62244 2.22868L1.85156 2.52846L2.71893 3.47574L5.29695 2.27664L4.92349 1.5332Z" fill="#FFFF5A"/>
<path d="M6.46572 2.42053L2.85168 5.57416L4.46595 4.77076L6.06818 5.57416L5.80315 3.79949L7.06806 2.51646L6.46572 2.42053Z" fill="#FFB10F"/>
</svg>
