<svg width="16" height="15" viewBox="0 0 16 15" fill="none" xmlns="http://www.w3.org/2000/svg">
<path d="M0.516794 5.90352C0.507323 5.89446 0.50366 5.88661 0.501697 5.87829C0.49923 5.86784 0.499131 5.85354 0.503591 5.83857C0.508069 5.82354 0.514808 5.81543 0.517635 5.81281C0.517734 5.81272 0.517822 5.81263 0.517911 5.81254C0.518568 5.81186 0.51924 5.81116 0.52426 5.81045L0.524993 5.81035L5.42298 5.11437L5.68139 5.07766L5.799 4.84465L7.98292 0.517931C7.98696 0.509942 7.99036 0.505811 7.99203 0.50401C7.99374 0.502155 7.99485 0.501434 7.99529 0.501169C7.9962 0.500624 7.99775 0.5 8.00013 0.5C8.00251 0.5 8.00407 0.500624 8.00497 0.501169C8.00541 0.501434 8.00652 0.502156 8.00823 0.50401C8.0099 0.505812 8.0133 0.509943 8.01734 0.517932L10.2013 4.84465L10.3189 5.07766L10.5773 5.11437L15.4753 5.81035L15.476 5.81045C15.4817 5.81126 15.4818 5.81205 15.4826 5.81278C15.4854 5.81535 15.492 5.82338 15.4965 5.83828C15.5009 5.85311 15.5008 5.86728 15.4983 5.87764C15.4963 5.88587 15.4927 5.89381 15.483 5.90306L15.4827 5.90331L11.9607 9.25919L11.7669 9.44389L11.8131 9.7076L12.6431 14.4374L12.6432 14.4377C12.6465 14.4567 12.6437 14.4681 12.641 14.475C12.6377 14.4835 12.6321 14.4907 12.6259 14.4956C12.6236 14.4975 12.6216 14.4986 12.6203 14.4993C12.6196 14.499 12.6188 14.4986 12.6178 14.4981L8.22712 12.2423L7.99855 12.1249L7.77002 12.2424L3.38244 14.4981C3.38236 14.4982 3.38228 14.4982 3.3822 14.4982C3.38134 14.4987 3.38059 14.499 3.37996 14.4993C3.37862 14.4986 3.3767 14.4975 3.37433 14.4956C3.36817 14.4907 3.36259 14.4835 3.35924 14.475C3.35652 14.4681 3.35373 14.4567 3.35707 14.4377L3.35712 14.4374L4.18712 9.7076L4.2334 9.44384L4.03951 9.25914L0.516859 5.90358C0.516837 5.90356 0.516815 5.90354 0.516794 5.90352Z" stroke="#FFF132"/>
</svg>
