<svg width="11" height="10" viewBox="0 0 11 10" fill="none" xmlns="http://www.w3.org/2000/svg">
<path d="M7.54904 2.61466L7.56116 2.59162V2.61466H10.0694L8.79712 1.30157L7.54904 0H5.04077L6.28885 1.30157L7.54904 2.61466Z" fill="#A3D1FF"/>
<path d="M10.0695 2.61469H7.54913L5.05298 9.42202L10.0695 2.61469Z" fill="#72BDFB"/>
<path d="M2.54468 2.61466H5.04083H7.54911L6.28891 1.30157L5.04083 0L3.79276 1.30157L2.54468 2.61466Z" fill="#A8E6FF"/>
<path d="M2.52039 2.61469H0L4.99231 9.4105L3.78059 6.02411L2.52039 2.61469Z" fill="#3394FF"/>
<path d="M7.56117 2.61466H7.54905H5.0529H7.54905H5.04078H2.54462L3.7927 1.30157L5.04078 0H2.54462H2.52039L1.2602 1.31309L0 2.61466H2.50827H5.02866H2.52039L3.7927 6.05864L5.04078 9.45654L5.0529 9.42199L7.56117 2.61466Z" fill="#30C6CD"/>
<path opacity="0.58" d="M0 2.61469L5.04078 9.45657L10.0694 2.61469L6.02228 6.78432L5.0529 2.61469L4.03505 6.71521L0 2.61469Z" fill="#64FAFF"/>
<path d="M7.97306 2.61463C7.67013 2.61463 7.4399 2.94866 7.4399 3.4094C7.4399 2.94866 7.20967 2.61463 6.90674 2.61463C7.20967 2.61463 7.4399 2.26908 7.4399 1.80835C7.4399 2.30364 7.67013 2.61463 7.97306 2.61463Z" fill="white"/>
</svg>
