<svg width="144" height="215" viewBox="0 0 144 215" fill="none" xmlns="http://www.w3.org/2000/svg">
<g clip-path="url(#clip0_6001_5)">
<rect width="144" height="215" rx="10" fill="url(#paint0_linear_6001_5)"/>
<rect x="73.5254" y="11" width="137.922" height="137.922" rx="8" transform="rotate(45 73.5254 11)" fill="white" fill-opacity="0.2"/>
<g filter="url(#filter0_d_6001_5)">
<g clip-path="url(#clip1_6001_5)">
<rect x="6" y="6" width="132" height="173" rx="7" fill="url(#paint1_linear_6001_5)"/>
<rect x="518.352" y="37.0273" width="978.489" height="978.489" rx="40" transform="rotate(45 518.352 37.0273)" fill="url(#paint2_linear_6001_5)" fill-opacity="0.2"/>
<path fill-rule="evenodd" clip-rule="evenodd" d="M25.3554 -115L26.1704 -114.185L-253.185 165.17L-254 164.355L25.3554 -115ZM-132.294 294.039L-132.294 294.04L147.062 14.6842L146.246 13.8692L146.155 13.9604L146.155 13.9599L-133.201 293.315L-132.386 294.13L-132.294 294.039ZM67.7972 -72.5582L66.9821 -73.3732L-212.373 205.982L-211.558 206.797L67.7972 -72.5582ZM187.782 55.587L188.597 56.4017L188.597 56.4021L-90.7581 335.757L-90.7589 335.757L-91.5732 334.942L-91.5739 334.942L187.781 55.5867L187.782 55.587ZM-169.932 248.424L105.434 -26.9422L109.423 -30.9314L108.608 -31.7464L104.619 -27.7572L-170.747 247.609L-174.736 251.598L-173.921 252.413L-169.932 248.424ZM225.42 101.203L226.235 102.018L-53.1206 381.373L-53.9356 380.558L225.42 101.203ZM34.4956 -105.86L33.6806 -106.675L-245.675 172.681L-244.86 173.496L34.4956 -105.86ZM154.481 22.2855L155.296 23.1005L-124.059 302.456L-124.874 301.641L154.481 22.2855ZM76.1224 -64.233L75.3074 -65.048L-204.048 214.307L-203.233 215.122L76.1224 -64.233ZM196.107 63.9122L196.922 64.7273L-82.4329 344.083L-83.248 343.268L196.107 63.9122ZM113.76 -18.6173L112.945 -19.4324L-166.41 259.923L-165.595 260.738L113.76 -18.6173ZM233.745 109.528L234.56 110.343L-44.7954 389.699L-45.6104 388.884L233.745 109.528ZM42.8208 -97.5345L42.0058 -98.3492L-237.35 181.006L-236.535 181.821L42.8208 -97.5345ZM162.806 30.6107L163.621 31.4257L-115.734 310.781L-116.55 309.966L162.806 30.6107ZM84.4469 -55.9077L83.6318 -56.7228L-195.724 222.633L-194.908 223.448L84.4469 -55.9077ZM204.433 72.2374L205.248 73.0525L-74.1077 352.408L-74.9228 351.593L204.433 72.2374ZM122.085 -10.2917L121.27 -11.1068L-158.085 268.249L-157.27 269.064L122.085 -10.2917ZM242.07 117.853L242.885 118.669L-36.4702 398.024L-37.2852 397.209L242.07 117.853ZM51.146 -89.2093L50.331 -90.0244L-229.024 189.331L-228.209 190.146L51.146 -89.2093ZM171.131 38.9362L171.946 39.7513L-107.409 319.107L-108.224 318.292L171.131 38.9362ZM92.7728 -47.5822L91.9578 -48.3972L-187.398 230.958L-186.583 231.773L92.7728 -47.5822ZM212.758 80.5627L213.573 81.3777L-65.7825 360.733L-66.5976 359.918L212.758 80.5627ZM130.41 -1.96617L129.595 -2.78123L-149.76 276.574L-148.945 277.389L130.41 -1.96617ZM250.396 126.179L251.211 126.994L-28.1442 406.349L-28.9593 405.534L250.396 126.179ZM59.472 -80.8834L58.6569 -81.6984L-220.698 197.657L-219.883 198.472L59.472 -80.8834ZM179.457 47.2611L180.272 48.0762L-99.0833 327.432L-99.8984 326.616L179.457 47.2611ZM101.098 -39.257L100.283 -40.072L-179.072 239.283L-178.257 240.098L101.098 -39.257ZM221.083 88.8882L221.898 89.7033L-57.4573 369.059L-58.2723 368.244L221.083 88.8882ZM138.736 6.35904L137.921 5.54398L-141.434 284.899L-140.619 285.714L138.736 6.35904ZM258.721 134.504L259.536 135.319L-19.8197 414.675L-20.6348 413.86L258.721 134.504Z" fill="url(#paint3_linear_6001_5)" fill-opacity="0.5"/>
<rect x="74.5259" y="11" width="137.922" height="137.922" rx="8" transform="rotate(45 74.5259 11)" fill="white" fill-opacity="0.2"/>
<rect x="6.25" y="6.25" width="131.5" height="172.5" rx="6.75" stroke="white" stroke-width="0.5"/>
</g>
</g>
</g>
<defs>
<filter id="filter0_d_6001_5" x="1" y="6" width="142" height="183" filterUnits="userSpaceOnUse" color-interpolation-filters="sRGB">
<feFlood flood-opacity="0" result="BackgroundImageFix"/>
<feColorMatrix in="SourceAlpha" type="matrix" values="0 0 0 0 0 0 0 0 0 0 0 0 0 0 0 0 0 0 127 0" result="hardAlpha"/>
<feOffset dy="5"/>
<feGaussianBlur stdDeviation="2.5"/>
<feComposite in2="hardAlpha" operator="out"/>
<feColorMatrix type="matrix" values="0 0 0 0 0.140833 0 0 0 0 0.117807 0 0 0 0 0.0257021 0 0 0 0.7 0"/>
<feBlend mode="normal" in2="BackgroundImageFix" result="effect1_dropShadow_6001_5"/>
<feBlend mode="normal" in="SourceGraphic" in2="effect1_dropShadow_6001_5" result="shape"/>
</filter>
<linearGradient id="paint0_linear_6001_5" x1="72" y1="0" x2="72" y2="215" gradientUnits="userSpaceOnUse">
<stop offset="0.2" stop-color="#B19D76"/>
<stop offset="1" stop-color="#B69347"/>
</linearGradient>
<linearGradient id="paint1_linear_6001_5" x1="72" y1="6" x2="72" y2="179" gradientUnits="userSpaceOnUse">
<stop stop-color="#DDC48D"/>
<stop offset="1" stop-color="#614E2A"/>
</linearGradient>
<linearGradient id="paint2_linear_6001_5" x1="518.352" y1="37.0273" x2="898.72" y2="417.396" gradientUnits="userSpaceOnUse">
<stop stop-color="white"/>
<stop offset="1" stop-color="#303030"/>
</linearGradient>
<linearGradient id="paint3_linear_6001_5" x1="160.134" y1="237.518" x2="161.018" y2="238.406" gradientUnits="userSpaceOnUse">
<stop stop-color="#E9E6ED" stop-opacity="0.2"/>
<stop offset="1" stop-color="#562783"/>
</linearGradient>
<clipPath id="clip0_6001_5">
<rect width="144" height="215" rx="10" fill="white"/>
</clipPath>
<clipPath id="clip1_6001_5">
<rect x="6" y="6" width="132" height="173" rx="7" fill="white"/>
</clipPath>
</defs>
</svg>
