<svg width="194" height="235" viewBox="0 0 194 235" fill="none" xmlns="http://www.w3.org/2000/svg">
<path d="M192.887 0.283203H0.113945C0.113945 0.283203 -0.54922 124.125 1.40238 143.685C3.35398 163.245 32.6848 196.471 57.4493 212.127C69.9944 220.271 83.0157 227.657 96.4434 234.245H96.6329C110.068 227.66 123.096 220.274 135.646 212.127C160.41 196.471 189.722 163.245 191.674 143.685C193.626 124.125 192.887 0.283203 192.887 0.283203Z" fill="url(#paint0_linear_335_232)"/>
<path d="M96.5 216.789C90.2663 213.529 79.7693 207.729 65.805 198.897C42.0637 183.905 18.1708 154.205 17.0529 142.131C15.7076 128.712 15.6318 56.7458 15.7644 15.9199H177.387C177.52 56.7458 177.387 128.712 176.099 142.131C174.886 154.205 150.993 183.829 127.271 198.992C113.231 207.729 102.715 213.529 96.5 216.789Z" fill="url(#paint1_linear_335_232)"/>
<path d="M96.0266 0.283203H0.113945C0.113945 0.283203 -0.54922 124.125 1.40238 143.685C3.35398 163.245 32.6848 196.471 57.4493 212.127C69.8819 220.163 82.7618 227.484 96.0266 234.056V0.283203Z" fill="url(#paint2_linear_335_232)"/>
<path d="M96.5 216.789C90.2663 213.529 79.7693 207.729 65.805 198.897C42.0637 183.905 18.1708 154.205 17.0529 142.131C15.7076 128.712 15.6318 56.7458 15.7644 15.9199H177.387C177.52 56.7458 177.387 128.712 176.099 142.131C174.886 154.205 150.993 183.829 127.271 198.992C113.231 207.729 102.715 213.529 96.5 216.789Z" stroke="url(#paint3_linear_335_232)" stroke-width="2.39" stroke-miterlimit="10"/>
<defs>
<linearGradient id="paint0_linear_335_232" x1="96.5003" y1="-23.3708" x2="96.5003" y2="292.565" gradientUnits="userSpaceOnUse">
<stop stop-color="#D5D5D5"/>
<stop offset="0.22" stop-color="#B5B5B5"/>
<stop offset="1" stop-color="#5C5C5C"/>
</linearGradient>
<linearGradient id="paint1_linear_335_232" x1="96.5" y1="10.177" x2="96.5" y2="274.749" gradientUnits="userSpaceOnUse">
<stop stop-color="#F1F1F1"/>
<stop offset="0.15" stop-color="#E6E6E6"/>
<stop offset="0.42" stop-color="#C8C8C8"/>
<stop offset="0.77" stop-color="#989898"/>
<stop offset="1" stop-color="#757575"/>
</linearGradient>
<linearGradient id="paint2_linear_335_232" x1="48.0134" y1="-17.9501" x2="48.0134" y2="232.369" gradientUnits="userSpaceOnUse">
<stop stop-color="white"/>
<stop offset="0.19" stop-color="white" stop-opacity="0.75"/>
<stop offset="0.41" stop-color="white" stop-opacity="0.49"/>
<stop offset="0.61" stop-color="white" stop-opacity="0.28"/>
<stop offset="0.78" stop-color="white" stop-opacity="0.13"/>
<stop offset="0.92" stop-color="white" stop-opacity="0.03"/>
<stop offset="1" stop-color="white" stop-opacity="0"/>
</linearGradient>
<linearGradient id="paint3_linear_335_232" x1="96.5" y1="219.348" x2="96.5" y2="13.6645" gradientUnits="userSpaceOnUse">
<stop stop-color="#C6C6C6"/>
<stop offset="0.11" stop-color="#C4C4C4"/>
<stop offset="0.16" stop-color="#BDBDBD"/>
<stop offset="0.19" stop-color="#B5B5B5"/>
<stop offset="1" stop-color="#5C5C5C"/>
</linearGradient>
</defs>
</svg>
