<svg xmlns="http://www.w3.org/2000/svg" xmlns:xlink="http://www.w3.org/1999/xlink" viewBox="0 0 1033.26 1935.32"><defs><style>.cls-1{fill:none;}.cls-2{isolation:isolate;}.cls-3{fill:url(#Безымянный_градиент_322);}.cls-10,.cls-11,.cls-12,.cls-13,.cls-14,.cls-15,.cls-16,.cls-17,.cls-18,.cls-19,.cls-20,.cls-21,.cls-22,.cls-23,.cls-24,.cls-25,.cls-26,.cls-27,.cls-28,.cls-4,.cls-5,.cls-6,.cls-7,.cls-8,.cls-9{fill-rule:evenodd;}.cls-4{fill:url(#Безымянный_градиент_179);}.cls-5{fill:url(#linear-gradient);}.cls-6{fill:#12a566;}.cls-7{fill:url(#linear-gradient-2);}.cls-8{fill:url(#linear-gradient-3);}.cls-9{fill:url(#linear-gradient-4);}.cls-10{fill:url(#Безымянный_градиент_179-2);}.cls-11{fill:url(#Безымянный_градиент_179-3);}.cls-12{fill:url(#linear-gradient-5);}.cls-13{fill:url(#linear-gradient-6);}.cls-14{fill:url(#linear-gradient-7);}.cls-15{fill:url(#linear-gradient-8);}.cls-16{fill:url(#linear-gradient-9);}.cls-17{fill:url(#linear-gradient-10);}.cls-18{fill:url(#linear-gradient-11);}.cls-19{fill:url(#linear-gradient-12);}.cls-20{fill:url(#Безымянный_градиент_179-4);}.cls-21{fill:url(#linear-gradient-13);}.cls-22{fill:url(#linear-gradient-14);}.cls-23{fill:url(#linear-gradient-15);}.cls-24{fill:url(#linear-gradient-16);}.cls-25,.cls-26,.cls-27,.cls-28{mix-blend-mode:screen;}.cls-25{fill:url(#New_Gradient_Swatch_3);}.cls-26{fill:url(#New_Gradient_Swatch_3-2);}.cls-27{fill:url(#New_Gradient_Swatch_3-3);}.cls-28{fill:url(#New_Gradient_Swatch_3-4);}.cls-29{clip-path:url(#clip-path);}.cls-30{fill:#111c17;}</style><radialGradient id="Безымянный_градиент_322" cx="516.63" cy="516.63" r="417.14" gradientUnits="userSpaceOnUse"><stop offset="0" stop-color="#c4e2d1"/><stop offset="0.28" stop-color="#91ceb5"/><stop offset="0.92" stop-color="#139b6e"/><stop offset="1" stop-color="#039565"/></radialGradient><radialGradient id="Безымянный_градиент_179" cx="25.26" cy="516.63" r="123.5" gradientUnits="userSpaceOnUse"><stop offset="0" stop-color="#e3fffb"/><stop offset="0.13" stop-color="#c7f3e7"/><stop offset="0.73" stop-color="#49bb8b"/><stop offset="1" stop-color="#16a566"/></radialGradient><linearGradient id="linear-gradient" x1="8.8" y1="516.63" x2="66.56" y2="516.63" gradientUnits="userSpaceOnUse"><stop offset="0" stop-color="#9fa8bd"/><stop offset="0.57" stop-color="#8991a3"/><stop offset="1" stop-color="#7c8494"/></linearGradient><linearGradient id="linear-gradient-2" x1="89.58" y1="516.63" x2="99.49" y2="516.63" gradientUnits="userSpaceOnUse"><stop offset="0" stop-color="#494c57"/><stop offset="1" stop-color="#50545e"/></linearGradient><linearGradient id="linear-gradient-3" y1="516.63" x2="49.41" y2="516.63" gradientUnits="userSpaceOnUse"><stop offset="0" stop-color="#5c616e"/><stop offset="0.41" stop-color="#696e7d"/><stop offset="1" stop-color="#818899"/></linearGradient><linearGradient id="linear-gradient-4" x1="66.56" y1="516.63" x2="89.58" y2="516.63" gradientUnits="userSpaceOnUse"><stop offset="0" stop-color="#494c57"/><stop offset="0.59" stop-color="#545866"/><stop offset="1" stop-color="#5d6273"/></linearGradient><radialGradient id="Безымянный_градиент_179-2" cx="516.63" cy="25.26" r="123.5" xlink:href="#Безымянный_градиент_179"/><radialGradient id="Безымянный_градиент_179-3" cx="-1801.59" cy="7361.68" r="123.5" gradientTransform="translate(-1284.96 8369.69) rotate(180)" xlink:href="#Безымянный_градиент_179"/><linearGradient id="linear-gradient-5" x1="516.63" y1="66.55" x2="516.63" y2="8.8" gradientUnits="userSpaceOnUse"><stop offset="0" stop-color="#c1cce6"/><stop offset="0.17" stop-color="#b6c0d8"/><stop offset="0.72" stop-color="#959fb2"/><stop offset="1" stop-color="#8992a3"/></linearGradient><linearGradient id="linear-gradient-6" x1="516.63" y1="99.49" x2="516.63" y2="89.57" gradientUnits="userSpaceOnUse"><stop offset="0" stop-color="#50545e"/><stop offset="0.33" stop-color="#474b58"/><stop offset="1" stop-color="#383d4f"/></linearGradient><linearGradient id="linear-gradient-7" x1="516.63" y1="49.41" x2="516.63" y2="0" xlink:href="#linear-gradient-5"/><linearGradient id="linear-gradient-8" x1="516.63" y1="89.57" x2="516.63" y2="66.55" xlink:href="#linear-gradient-6"/><linearGradient id="linear-gradient-9" x1="516.63" y1="1024.46" x2="516.63" y2="966.71" gradientUnits="userSpaceOnUse"><stop offset="0" stop-color="#50545e"/><stop offset="0.01" stop-color="#50545e"/><stop offset="1" stop-color="#414657"/></linearGradient><linearGradient id="linear-gradient-10" x1="516.63" y1="943.69" x2="516.63" y2="933.77" xlink:href="#linear-gradient-5"/><linearGradient id="linear-gradient-11" x1="516.63" y1="1033.26" x2="516.63" y2="983.85" gradientUnits="userSpaceOnUse"><stop offset="0" stop-color="#272a33"/><stop offset="0.62" stop-color="#313542"/><stop offset="1" stop-color="#383d4d"/></linearGradient><linearGradient id="linear-gradient-12" x1="516.63" y1="966.71" x2="516.63" y2="943.69" gradientUnits="userSpaceOnUse"><stop offset="0" stop-color="#c1cce6"/><stop offset="0.36" stop-color="#9ea8bf"/><stop offset="0.78" stop-color="#7b8599"/><stop offset="1" stop-color="#6d778a"/></linearGradient><radialGradient id="Безымянный_градиент_179-4" cx="1008.01" cy="516.63" r="123.5" xlink:href="#Безымянный_градиент_179"/><linearGradient id="linear-gradient-13" x1="966.72" y1="516.63" x2="1024.46" y2="516.63" xlink:href="#linear-gradient-2"/><linearGradient id="linear-gradient-14" x1="933.77" y1="516.63" x2="943.69" y2="516.63" gradientUnits="userSpaceOnUse"><stop offset="0" stop-color="#7c8494"/><stop offset="0.43" stop-color="#8991a3"/><stop offset="1" stop-color="#9fa8bd"/></linearGradient><linearGradient id="linear-gradient-15" x1="983.85" y1="516.63" x2="1033.26" y2="516.63" gradientUnits="userSpaceOnUse"><stop offset="0" stop-color="#3c3e47"/><stop offset="1" stop-color="#43474f"/></linearGradient><linearGradient id="linear-gradient-16" x1="943.69" y1="516.63" x2="966.72" y2="516.63" xlink:href="#linear-gradient-14"/><radialGradient id="New_Gradient_Swatch_3" cx="58.08" cy="-18.52" r="302.6" gradientUnits="userSpaceOnUse"><stop offset="0" stop-color="#e0f2ff"/><stop offset="0.09" stop-color="#bacbd4"/><stop offset="0.23" stop-color="#8a989d"/><stop offset="0.37" stop-color="#606c6d"/><stop offset="0.5" stop-color="#3d4846"/><stop offset="0.63" stop-color="#222c27"/><stop offset="0.76" stop-color="#0f1811"/><stop offset="0.89" stop-color="#040c04"/><stop offset="1" stop-color="#000800"/></radialGradient><radialGradient id="New_Gradient_Swatch_3-2" cx="913.33" cy="-125.16" r="439.76" xlink:href="#New_Gradient_Swatch_3"/><radialGradient id="New_Gradient_Swatch_3-3" cx="181.79" cy="873.68" r="429.92" xlink:href="#New_Gradient_Swatch_3"/><radialGradient id="New_Gradient_Swatch_3-4" cx="847.21" cy="820.36" r="426.2" xlink:href="#New_Gradient_Swatch_3"/><clipPath id="clip-path"><rect class="cls-1" x="99.49" y="99.49" width="834.28" height="834.28"/></clipPath></defs><g class="cls-2"><g id="Слой_2" data-name="Слой 2"><g id="Layer_1" data-name="Layer 1"><rect class="cls-3" x="99.49" y="99.49" width="834.28" height="834.28"/><path class="cls-4" d="M7.85,342.84V690.42l18.6-10.74A31.67,31.67,0,0,0,42.66,651.6V381.67a31.67,31.67,0,0,0-16.21-28.09L7.85,342.84Z"/><path class="cls-5" d="M8.8,8.8V346.19a10.56,10.56,0,0,0,5.5,9.53l16.41,9.47A37.72,37.72,0,0,1,42,375.13a37,37,0,0,1,7.37,22.46V635.68A36.93,36.93,0,0,1,42,658.13a37.88,37.88,0,0,1-11.33,10L14.3,677.55a10.55,10.55,0,0,0-5.5,9.52v337.39l57.75-57.75V66.55L8.8,8.8Z"/><path class="cls-6" d="M31.31,397.45V635.81c0,10.52-4.94,19.54-13.56,24.8l-9.9,6v4.61a21.52,21.52,0,0,1,2.06-1.35l16.4-9.47a27.94,27.94,0,0,0,14.3-24.77V397.59a28,28,0,0,0-14.3-24.78l-16.4-9.47A21.45,21.45,0,0,1,7.85,362v4.61l9.9,6c8.62,5.26,13.56,14.29,13.56,24.8Z"/><polygon class="cls-7" points="99.49 516.63 99.49 99.49 89.58 89.57 89.58 516.63 89.58 943.7 99.49 933.77 99.49 516.63 99.49 516.63"/><path class="cls-8" d="M8.8,343.39V8.8L0,0V346.19A19.3,19.3,0,0,0,7.85,362a21.45,21.45,0,0,0,2.06,1.34l16.4,9.47a28,28,0,0,1,14.3,24.78V635.68a27.94,27.94,0,0,1-14.3,24.77l-16.4,9.47a21.52,21.52,0,0,0-2.06,1.35A19.28,19.28,0,0,0,0,687.07v346.19l8.8-8.8V687.07a10.55,10.55,0,0,1,5.5-9.52l16.41-9.47a37.88,37.88,0,0,0,11.33-10,36.93,36.93,0,0,0,7.37-22.45V397.59A37,37,0,0,0,42,375.13a37.72,37.72,0,0,0-11.33-9.94L14.3,355.72a10.56,10.56,0,0,1-5.5-9.53v-2.8Z"/><polygon class="cls-9" points="89.58 516.63 89.58 89.57 66.56 66.55 66.56 966.71 89.58 943.7 89.58 516.63 89.58 516.63"/><path class="cls-10" d="M690.42,7.85H342.84l10.74,18.6a31.67,31.67,0,0,0,28.09,16.21H651.6a31.66,31.66,0,0,0,28.08-16.21l10.74-18.6Z"/><path class="cls-11" d="M342.84,1025.42H690.42l-10.73-18.6a31.69,31.69,0,0,0-28.1-16.22H381.67a31.66,31.66,0,0,0-28.09,16.22l-10.74,18.6Z"/><path class="cls-12" d="M1024.46,8.8H687.08a10.54,10.54,0,0,0-9.53,5.51l-9.47,16.4a37.88,37.88,0,0,1-10,11.33,36.84,36.84,0,0,1-22.45,7.37H397.59A36.89,36.89,0,0,1,375.13,42a37.72,37.72,0,0,1-9.94-11.33l-9.47-16.4a10.54,10.54,0,0,0-9.53-5.51H8.8L66.55,66.55H966.72L1024.46,8.8Z"/><path class="cls-6" d="M635.81,31.31H397.46c-10.52,0-19.55-4.93-24.81-13.56l-6-9.9H362a20.65,20.65,0,0,1,1.34,2.05l9.48,16.41a27.93,27.93,0,0,0,24.77,14.3H635.68a27.94,27.94,0,0,0,24.77-14.3L669.92,9.9a22.68,22.68,0,0,1,1.35-2.05h-4.61l-6,9.9c-5.26,8.63-14.28,13.56-24.8,13.56Z"/><polygon class="cls-13" points="516.64 99.49 933.77 99.49 943.69 89.57 516.64 89.57 89.58 89.57 99.49 99.49 516.64 99.49 516.64 99.49"/><path class="cls-14" d="M689.87,8.8h334.59l8.8-8.8H687.08a19.28,19.28,0,0,0-15.81,7.85,22.68,22.68,0,0,0-1.35,2.05l-9.47,16.41a27.94,27.94,0,0,1-24.77,14.3H397.59a27.93,27.93,0,0,1-24.77-14.3L363.34,9.9A20.65,20.65,0,0,0,362,7.85,19.28,19.28,0,0,0,346.19,0H0L8.8,8.8H346.19a10.54,10.54,0,0,1,9.53,5.51l9.47,16.4A37.72,37.72,0,0,0,375.13,42a36.89,36.89,0,0,0,22.46,7.37H635.68A36.84,36.84,0,0,0,658.13,42a37.88,37.88,0,0,0,10-11.33l9.47-16.4a10.54,10.54,0,0,1,9.53-5.51Z"/><polygon class="cls-15" points="516.64 89.57 943.69 89.57 966.72 66.55 66.55 66.55 89.58 89.57 516.64 89.57 516.64 89.57"/><path class="cls-16" d="M1024.46,1024.46H687.08a10.55,10.55,0,0,1-9.53-5.5l-9.47-16.4a37.92,37.92,0,0,0-10-11.34,36.91,36.91,0,0,0-22.45-7.37H397.59a37,37,0,0,0-22.46,7.37,37.76,37.76,0,0,0-9.94,11.34l-9.47,16.4a10.55,10.55,0,0,1-9.53,5.5H8.8l57.75-57.75H966.72l57.74,57.75Z"/><path class="cls-6" d="M635.81,1002H397.46c-10.52,0-19.55,4.93-24.81,13.55l-6,9.91H362a20.8,20.8,0,0,0,1.34-2.06l9.48-16.4a27.91,27.91,0,0,1,24.77-14.3H635.68a27.93,27.93,0,0,1,24.77,14.3l9.47,16.4a22.85,22.85,0,0,0,1.35,2.06h-4.61l-6-9.91c-5.26-8.62-14.28-13.55-24.8-13.55Z"/><polygon class="cls-17" points="516.64 933.77 933.77 933.77 943.69 943.69 516.64 943.69 89.58 943.69 99.49 933.77 516.64 933.77 516.64 933.77"/><path class="cls-18" d="M689.87,1024.46h334.59l8.8,8.8H687.08a19.28,19.28,0,0,1-15.81-7.84,22.85,22.85,0,0,1-1.35-2.06l-9.47-16.4a27.93,27.93,0,0,0-24.77-14.3H397.59a27.91,27.91,0,0,0-24.77,14.3l-9.48,16.4a20.8,20.8,0,0,1-1.34,2.06,19.28,19.28,0,0,1-15.81,7.84H0l8.8-8.8H346.19a10.55,10.55,0,0,0,9.53-5.5l9.47-16.4a37.76,37.76,0,0,1,9.94-11.34,37,37,0,0,1,22.46-7.37H635.68a36.91,36.91,0,0,1,22.45,7.37,37.92,37.92,0,0,1,10,11.34l9.47,16.4a10.55,10.55,0,0,0,9.53,5.5Z"/><polygon class="cls-19" points="516.64 943.69 943.69 943.69 966.72 966.71 66.55 966.71 89.58 943.69 516.64 943.69 516.64 943.69"/><path class="cls-20" d="M1025.42,342.84V690.42l-18.6-10.74a31.65,31.65,0,0,1-16.21-28.08V381.67a31.65,31.65,0,0,1,16.21-28.09l18.6-10.74Z"/><path class="cls-21" d="M1024.46,8.8V346.19a10.55,10.55,0,0,1-5.5,9.53l-16.4,9.47a37.76,37.76,0,0,0-11.34,9.94,37,37,0,0,0-7.37,22.46V635.68a36.93,36.93,0,0,0,7.37,22.45,37.92,37.92,0,0,0,11.34,10l16.4,9.47a10.53,10.53,0,0,1,5.5,9.52v337.39l-57.74-57.75V66.55L1024.46,8.8Z"/><path class="cls-6" d="M1002,397.45V635.81c0,10.52,4.93,19.54,13.55,24.8l9.91,6v4.61c-.66-.48-1.34-.93-2.05-1.35L1007,660.45a27.93,27.93,0,0,1-14.3-24.77V397.59a27.93,27.93,0,0,1,14.3-24.78l16.41-9.47c.71-.42,1.39-.86,2.05-1.34v4.61l-9.91,6c-8.62,5.26-13.55,14.29-13.55,24.8Z"/><polygon class="cls-22" points="933.77 516.63 933.77 99.49 943.69 89.57 943.69 516.63 943.69 943.7 933.77 933.77 933.77 516.63 933.77 516.63"/><path class="cls-23" d="M1024.46,343.39V8.8l8.8-8.8V346.19a19.29,19.29,0,0,1-7.84,15.81c-.66.48-1.34.92-2.05,1.34L1007,372.81a27.93,27.93,0,0,0-14.3,24.78V635.68a27.93,27.93,0,0,0,14.3,24.77l16.41,9.47c.71.42,1.39.87,2.05,1.35a19.27,19.27,0,0,1,7.84,15.8v346.19l-8.8-8.8V687.07a10.53,10.53,0,0,0-5.5-9.52l-16.4-9.47a37.92,37.92,0,0,1-11.34-10,36.93,36.93,0,0,1-7.37-22.45V397.59a37,37,0,0,1,7.37-22.46,37.76,37.76,0,0,1,11.34-9.94l16.4-9.47a10.55,10.55,0,0,0,5.5-9.53v-2.8Z"/><polygon class="cls-24" points="943.69 516.63 943.69 89.57 966.72 66.55 966.72 966.71 943.69 943.7 943.69 516.63 943.69 516.63"/><polygon class="cls-25" points="66.56 289.16 62.24 69.39 15.06 15.07 69.39 62.24 288.79 66.55 71.59 71.59 66.56 289.16 66.56 289.16"/><polygon class="cls-26" points="966.72 289.16 971.03 69.39 1018.2 15.07 963.87 62.24 744.48 66.55 961.67 71.59 966.72 289.16 966.72 289.16"/><polygon class="cls-27" points="66.56 744.1 62.24 963.87 15.07 1018.2 69.39 971.03 288.79 966.71 71.59 961.67 66.56 744.1 66.56 744.1"/><polygon class="cls-28" points="966.72 744.1 971.03 963.87 1018.2 1018.2 963.87 971.03 744.48 966.71 961.67 961.67 966.72 744.1 966.72 744.1"/><g class="cls-29"><path class="cls-30" d="M465.38,389.5v15.31l-5.15,15.3-24.06,25.5L362.3,483s-14.6,11.05-19.76,14.45-15.46,15.3-17.18,35.7-6.87,59.51-6.87,59.51l-18.9,200.63s-20.62,68-27.49,113.91-25.77,134.32-25.77,134.32l10.31,13.6s-1.72,32.3-3.44,35.7-5.15,11.91-1.71,20.41,6.87,27.2,6.87,27.2,10.31,11.9,18.9,17,22.33,11.9,29.2,10.2,15.46,0,15.46-6.8c5.16-3.4,5.16-6.8,1.72-10.2,3.44-5.1,1.72-10.2-3.43-10.2a21,21,0,0,1-8.59-1.7l-12-10.2v-18.7s-3.44-13.61-1.72-18.71l5.16-15.3s8.59,1.7,12-1.7,5.16-10.2,5.16-10.2l1.71,1.7v8.5s6.88,1.7,8.6,3.4,3.43,6.8,3.43,6.8,3.44,96.92,12,144.52,20.61,79.91,22.33,93.51,15.46,73.11,25.77,98.62,65.29,180.22,68.72,192.12,27.49,102,34.37,103.72c-3.44,10.2-13.75,49.3-13.75,56.1s-10.31,40.81-10.31,40.81l-3.43,20.4s-15.47,25.5-20.62,28.9-27.49,3.4-30.92,8.51-10.31,6.8-10.31,17c-3.44,1.7-3.44,6.8-3.44,6.8h13.75a105.93,105.93,0,0,1-13.75,8.5c-6.87,3.4-15.46,13.6-17.18,23.8-5.15,0-5.15,5.1-5.15,5.1l15.46,1.7s73.87,5.1,99.65,1.7,32.64-20.4,42.95-18.7a58.71,58.71,0,0,0,18.89,0l20.62-6.8v-25.5s3.44-11.9,0-17c12,3.41,12,5.11,24,3.41s48.11-11.91,48.11-11.91,5.15-5.1,3.44-11.9-5.16-8.5-5.16-15.3,8.59-32.3-12-54.41c-1.71-13.6-13.74-42.5-13.74-42.5s-3.44-30.61-6.87-37.41-10.31-11.9-6.87-17,22.33-130.92,20.61-170-10.31-90.11-6.87-96.91-5.15-68-1.72-81.61,12-61.21,12-96.92-6.87-68-5.16-76.51,5.16-20.4,6.88-37.4,1.71-30.61,5.15-32.31,42.95-1.7,42.95-1.7l-8.59-52.7s6.87-32.31,10.31-40.81,13.74-37.4,17.18-49.3,13.74-47.61,15.46-56.11S734.26,808.61,736,774.6,746.28,574,746.28,574s6.87-83.31-30.92-102-97.93-37.4-97.93-37.4l-25.77-34-6.87-1.7-6.88-15.3-6.87-5.1,3.44-49.3s12,8.5,15.46,0,12-32.31,10.31-37.41-3.44-11.9-13.75-6.8c6.88-15.3,8.59-13.6,8.59-22.1s-1.71-13.6,0-22.11a123.73,123.73,0,0,1,3.44-13.6s-15.46-30.6-22.33-30.6c-3.44-8.5-29.21-37.41-49.83-39.11s-48.1-3.4-51.54,0-6.87,1.7-10.31,5.1a67.11,67.11,0,0,1-8.59,6.81s-5.15-1.71-8.59,6.8S440.47,203.33,437,205s-8.59,8.5-8.59,18.7-3.43,27.21,0,30.61,5.16,13.6,5.16,13.6l1.72,13.6s-10.31-1.7-8.59,5.1,6.87,13.6,6.87,18.7,1.72,22.11,10.31,25.51c0,0,3.43,27.2,12,35.7s8.59,13.6,8.59,13.6Z"/></g></g></g></g></svg>