<?xml version="1.0" encoding="UTF-8"?>
<svg id="_Слой_2" data-name="Слой 2" xmlns="http://www.w3.org/2000/svg" xmlns:xlink="http://www.w3.org/1999/xlink" viewBox="0 0 1033.3 1033.26">
  <defs>
    <style>
      .cls-1 {
        fill: #fffff4;
      }

      .cls-1, .cls-2, .cls-3, .cls-4, .cls-5, .cls-6, .cls-7, .cls-8, .cls-9, .cls-10, .cls-11, .cls-12, .cls-13, .cls-14, .cls-15, .cls-16, .cls-17, .cls-18, .cls-19, .cls-20, .cls-21, .cls-22, .cls-23, .cls-24, .cls-25, .cls-26, .cls-27, .cls-28, .cls-29, .cls-30, .cls-31, .cls-32, .cls-33, .cls-34, .cls-35, .cls-36, .cls-37 {
        stroke-width: 0px;
      }

      .cls-2 {
        fill: url(#_Безымянный_градиент_3);
      }

      .cls-2, .cls-3, .cls-4, .cls-6, .cls-7, .cls-8, .cls-9, .cls-11, .cls-13, .cls-14, .cls-15, .cls-16, .cls-17, .cls-18, .cls-19, .cls-23, .cls-24, .cls-25, .cls-27, .cls-29, .cls-30, .cls-31, .cls-33, .cls-36, .cls-37 {
        fill-rule: evenodd;
      }

      .cls-3 {
        fill: url(#_Безымянный_градиент_10-2);
      }

      .cls-4 {
        fill: url(#_Безымянный_градиент_22);
      }

      .cls-5 {
        fill: #00927e;
      }

      .cls-6 {
        fill: url(#_Безымянный_градиент_11-3);
      }

      .cls-7 {
        fill: url(#_Безымянный_градиент_11-2);
      }

      .cls-8 {
        fill: url(#_Безымянный_градиент_20);
      }

      .cls-9 {
        fill: url(#_Безымянный_градиент_13);
      }

      .cls-10 {
        fill: #232020;
        isolation: isolate;
        opacity: .09;
      }

      .cls-11 {
        fill: url(#_Безымянный_градиент_6);
      }

      .cls-12 {
        fill: #ffdd7d;
      }

      .cls-13 {
        fill: url(#_Безымянный_градиент_22-3);
      }

      .cls-14 {
        fill: url(#_Безымянный_градиент_30);
      }

      .cls-15 {
        fill: url(#_Безымянный_градиент_22-2);
      }

      .cls-16 {
        fill: url(#_Безымянный_градиент_28);
      }

      .cls-17 {
        fill: url(#_Безымянный_градиент_18);
      }

      .cls-18 {
        fill: url(#_Безымянный_градиент_16);
      }

      .cls-19 {
        fill: url(#_Безымянный_градиент_19);
      }

      .cls-20 {
        fill: #d4b7a3;
      }

      .cls-21 {
        fill: #dabfaf;
      }

      .cls-22 {
        fill: #bb7453;
      }

      .cls-23 {
        fill: url(#_Безымянный_градиент_5);
      }

      .cls-24 {
        fill: url(#_Безымянный_градиент_18-2);
      }

      .cls-25 {
        fill: url(#_Безымянный_градиент_19-2);
      }

      .cls-26 {
        fill: #c1b39a;
      }

      .cls-27 {
        fill: url(#_Безымянный_градиент_11);
      }

      .cls-28 {
        fill: #414042;
      }

      .cls-29 {
        fill: url(#_Безымянный_градиент_10);
      }

      .cls-30 {
        fill: url(#_Безымянный_градиент_22-4);
      }

      .cls-31 {
        fill: url(#_Безымянный_градиент_15);
      }

      .cls-32 {
        fill: #33444b;
      }

      .cls-33 {
        fill: url(#_Безымянный_градиент_29);
      }

      .cls-34 {
        fill: #bbbcc0;
      }

      .cls-35 {
        fill: url(#_Безымянный_градиент_31);
      }

      .cls-36 {
        fill: #3db6dd;
      }

      .cls-37 {
        fill: url(#_Безымянный_градиент_29-2);
      }
    </style>
    <radialGradient id="_Безымянный_градиент_31" data-name="Безымянный градиент 31" cx="1190.76" cy="-1640.07" fx="1190.76" fy="-1640.07" r="484.7" gradientTransform="translate(-531.23 -862.24) scale(.88 -.84)" gradientUnits="userSpaceOnUse">
      <stop offset="0" stop-color="#e4f3fb"/>
      <stop offset=".43" stop-color="#b1c5e3"/>
      <stop offset="1" stop-color="#6a83c1"/>
    </radialGradient>
    <radialGradient id="_Безымянный_градиент_30" data-name="Безымянный градиент 30" cx="25.26" cy="-1416.01" fx="25.26" fy="-1416.01" r="123.5" gradientTransform="translate(0 -899.38) scale(1 -1)" gradientUnits="userSpaceOnUse">
      <stop offset="0" stop-color="#e3fffb"/>
      <stop offset=".12" stop-color="#caeaf2"/>
      <stop offset=".73" stop-color="#4c7dc4"/>
      <stop offset="1" stop-color="#1951b2"/>
    </radialGradient>
    <linearGradient id="_Безымянный_градиент_3" data-name="Безымянный градиент 3" x1="8.8" y1="-1416.01" x2="66.55" y2="-1416.01" gradientTransform="translate(0 -899.38) scale(1 -1)" gradientUnits="userSpaceOnUse">
      <stop offset="0" stop-color="#9fa8bd"/>
      <stop offset=".57" stop-color="#8991a3"/>
      <stop offset="1" stop-color="#7c8494"/>
    </linearGradient>
    <linearGradient id="_Безымянный_градиент_18" data-name="Безымянный градиент 18" x1="89.58" y1="-1416.01" x2="99.49" y2="-1416.01" gradientTransform="translate(0 -899.38) scale(1 -1)" gradientUnits="userSpaceOnUse">
      <stop offset="0" stop-color="#494c57"/>
      <stop offset="1" stop-color="#50545e"/>
    </linearGradient>
    <linearGradient id="_Безымянный_градиент_5" data-name="Безымянный градиент 5" x1="0" y1="-1416.01" x2="49.41" y2="-1416.01" gradientTransform="translate(0 -899.38) scale(1 -1)" gradientUnits="userSpaceOnUse">
      <stop offset="0" stop-color="#5c616e"/>
      <stop offset=".41" stop-color="#696e7d"/>
      <stop offset="1" stop-color="#818899"/>
    </linearGradient>
    <linearGradient id="_Безымянный_градиент_6" data-name="Безымянный градиент 6" x1="66.56" y1="-1416.01" x2="89.58" y2="-1416.01" gradientTransform="translate(0 -899.38) scale(1 -1)" gradientUnits="userSpaceOnUse">
      <stop offset="0" stop-color="#494c57"/>
      <stop offset=".59" stop-color="#545866"/>
      <stop offset="1" stop-color="#5d6273"/>
    </linearGradient>
    <radialGradient id="_Безымянный_градиент_29" data-name="Безымянный градиент 29" cx="516.63" cy="-924.63" fx="516.63" fy="-924.63" r="123.5" gradientTransform="translate(0 -899.38) scale(1 -1)" gradientUnits="userSpaceOnUse">
      <stop offset="0" stop-color="#e3fffb"/>
      <stop offset=".12" stop-color="#caeaf3"/>
      <stop offset=".73" stop-color="#4c7dc7"/>
      <stop offset="1" stop-color="#1952b6"/>
    </radialGradient>
    <radialGradient id="_Безымянный_градиент_29-2" data-name="Безымянный градиент 29" cx="-7059.73" cy="-1549.02" fx="-7059.73" fy="-1549.02" r="123.5" gradientTransform="translate(-6543.1 2557.03) rotate(-180) scale(1 -1)" xlink:href="#_Безымянный_градиент_29"/>
    <linearGradient id="_Безымянный_градиент_11" data-name="Безымянный градиент 11" x1="516.63" y1="-965.93" x2="516.63" y2="-908.13" gradientTransform="translate(0 -899.38) scale(1 -1)" gradientUnits="userSpaceOnUse">
      <stop offset="0" stop-color="#c1cce6"/>
      <stop offset=".17" stop-color="#b6c0d8"/>
      <stop offset=".72" stop-color="#959fb2"/>
      <stop offset="1" stop-color="#8992a3"/>
    </linearGradient>
    <linearGradient id="_Безымянный_градиент_10" data-name="Безымянный градиент 10" x1="516.64" y1="-998.87" x2="516.64" y2="-988.95" gradientTransform="translate(0 -899.38) scale(1 -1)" gradientUnits="userSpaceOnUse">
      <stop offset="0" stop-color="#50545e"/>
      <stop offset=".33" stop-color="#474b58"/>
      <stop offset="1" stop-color="#383d4f"/>
    </linearGradient>
    <linearGradient id="_Безымянный_градиент_11-2" data-name="Безымянный градиент 11" x1="516.63" y1="-948.75" x2="516.63" y2="-899.38" xlink:href="#_Безымянный_градиент_11"/>
    <linearGradient id="_Безымянный_градиент_10-2" data-name="Безымянный градиент 10" x1="516.64" y1="-988.95" x2="516.64" y2="-965.93" xlink:href="#_Безымянный_градиент_10"/>
    <linearGradient id="_Безымянный_градиент_13" data-name="Безымянный градиент 13" x1="516.63" y1="-1923.84" x2="516.63" y2="-1866.09" gradientTransform="translate(0 -899.38) scale(1 -1)" gradientUnits="userSpaceOnUse">
      <stop offset="0" stop-color="#50545e"/>
      <stop offset="0" stop-color="#50545e"/>
      <stop offset="1" stop-color="#414657"/>
    </linearGradient>
    <linearGradient id="_Безымянный_градиент_11-3" data-name="Безымянный градиент 11" x1="516.64" y1="-1843.07" x2="516.64" y2="-1833.15" xlink:href="#_Безымянный_градиент_11"/>
    <linearGradient id="_Безымянный_градиент_15" data-name="Безымянный градиент 15" x1="516.63" y1="-1932.64" x2="516.63" y2="-1883.23" gradientTransform="translate(0 -899.38) scale(1 -1)" gradientUnits="userSpaceOnUse">
      <stop offset="0" stop-color="#272a33"/>
      <stop offset=".62" stop-color="#313542"/>
      <stop offset="1" stop-color="#383d4d"/>
    </linearGradient>
    <linearGradient id="_Безымянный_градиент_16" data-name="Безымянный градиент 16" x1="516.64" y1="-1866.09" x2="516.64" y2="-1843.07" gradientTransform="translate(0 -899.38) scale(1 -1)" gradientUnits="userSpaceOnUse">
      <stop offset="0" stop-color="#c1cce6"/>
      <stop offset=".36" stop-color="#9ea8bf"/>
      <stop offset=".78" stop-color="#7b8599"/>
      <stop offset="1" stop-color="#6d778a"/>
    </linearGradient>
    <radialGradient id="_Безымянный_градиент_28" data-name="Безымянный градиент 28" cx="1008.02" cy="-1416.01" fx="1008.02" fy="-1416.01" r="123.5" gradientTransform="translate(0 -899.38) scale(1 -1)" gradientUnits="userSpaceOnUse">
      <stop offset="0" stop-color="#e3fffb"/>
      <stop offset=".12" stop-color="#caeaf2"/>
      <stop offset=".73" stop-color="#4c7dc5"/>
      <stop offset="1" stop-color="#1951b3"/>
    </radialGradient>
    <linearGradient id="_Безымянный_градиент_18-2" data-name="Безымянный градиент 18" x1="966.72" y1="-1416.03" x2="1024.47" y2="-1416.03" xlink:href="#_Безымянный_градиент_18"/>
    <linearGradient id="_Безымянный_градиент_19" data-name="Безымянный градиент 19" x1="933.77" y1="-1416.01" x2="943.69" y2="-1416.01" gradientTransform="translate(0 -899.38) scale(1 -1)" gradientUnits="userSpaceOnUse">
      <stop offset="0" stop-color="#7c8494"/>
      <stop offset=".43" stop-color="#8991a3"/>
      <stop offset="1" stop-color="#9fa8bd"/>
    </linearGradient>
    <linearGradient id="_Безымянный_градиент_20" data-name="Безымянный градиент 20" x1="983.89" y1="-1416.01" x2="1033.3" y2="-1416.01" gradientTransform="translate(0 -899.38) scale(1 -1)" gradientUnits="userSpaceOnUse">
      <stop offset="0" stop-color="#3c3e47"/>
      <stop offset="1" stop-color="#43474f"/>
    </linearGradient>
    <linearGradient id="_Безымянный_градиент_19-2" data-name="Безымянный градиент 19" x1="943.69" y1="-1416.01" x2="966.72" y2="-1416.01" xlink:href="#_Безымянный_градиент_19"/>
    <radialGradient id="_Безымянный_градиент_22" data-name="Безымянный градиент 22" cx="58.08" cy="-880.86" fx="58.08" fy="-880.86" r="302.6" gradientTransform="translate(0 -899.38) scale(1 -1)" gradientUnits="userSpaceOnUse">
      <stop offset="0" stop-color="#e0f2ff"/>
      <stop offset=".09" stop-color="#bacbd4"/>
      <stop offset=".23" stop-color="#8a989d"/>
      <stop offset=".37" stop-color="#606c6d"/>
      <stop offset=".5" stop-color="#3d4846"/>
      <stop offset=".63" stop-color="#222c27"/>
      <stop offset=".76" stop-color="#0f1811"/>
      <stop offset=".89" stop-color="#040c04"/>
      <stop offset="1" stop-color="#000800"/>
    </radialGradient>
    <radialGradient id="_Безымянный_градиент_22-2" data-name="Безымянный градиент 22" cx="913.33" cy="-774.22" fx="913.33" fy="-774.22" r="439.76" xlink:href="#_Безымянный_градиент_22"/>
    <radialGradient id="_Безымянный_градиент_22-3" data-name="Безымянный градиент 22" cx="181.79" cy="-1773.06" fx="181.79" fy="-1773.06" r="429.92" xlink:href="#_Безымянный_градиент_22"/>
    <radialGradient id="_Безымянный_градиент_22-4" data-name="Безымянный градиент 22" cx="847.21" cy="-1719.74" fx="847.21" fy="-1719.74" r="426.2" xlink:href="#_Безымянный_градиент_22"/>
  </defs>
  <g id="_Слой_1-2" data-name="Слой 1">
    <g>
      <rect class="cls-35" x="99.49" y="99.49" width="834.28" height="834.28"/>
      <path class="cls-14" d="m7.85,342.84v347.58l18.6-10.74c10.15-5.67,16.37-16.45,16.21-28.08v-269.93c.16-11.63-6.06-22.41-16.21-28.09l-18.6-10.74Z"/>
      <path class="cls-2" d="m8.8,8.8v337.39c-.1,3.96,2.03,7.63,5.5,9.53l16.41,9.47c4.39,2.52,8.23,5.9,11.29,9.94,4.85,6.48,7.44,14.37,7.37,22.46v238.09c.07,8.09-2.52,15.98-7.37,22.45-3.07,4.06-6.92,7.46-11.33,10l-16.37,9.42c-3.47,1.89-5.6,5.57-5.5,9.52v337.39l57.75-57.75V66.55L8.8,8.8Z"/>
      <path class="cls-36" d="m31.31,397.45v238.36c0,10.52-4.94,19.54-13.56,24.8l-9.9,6v4.61c.66-.49,1.35-.94,2.06-1.35l16.4-9.47c8.95-5.01,14.44-14.51,14.3-24.77v-238.04c.13-10.26-5.35-19.76-14.3-24.78l-16.4-9.47c-.71-.41-1.4-.85-2.06-1.34v4.61l9.9,6c8.62,5.26,13.56,14.29,13.56,24.8v.04Z"/>
      <polygon class="cls-17" points="99.49 516.63 99.49 99.49 89.58 89.57 89.58 516.63 89.58 943.7 99.49 933.77 99.49 516.63 99.49 516.63"/>
      <path class="cls-23" d="m8.8,343.39V8.8L0,0v346.19c-.09,6.23,2.84,12.12,7.85,15.81.66.49,1.35.93,2.06,1.34l16.4,9.47c8.95,5.02,14.43,14.52,14.3,24.78v238.09c.14,10.26-5.35,19.76-14.3,24.77l-16.4,9.47c-.71.41-1.4.86-2.06,1.35-5.01,3.69-7.94,9.57-7.85,15.8v346.19l8.8-8.8v-337.39c-.1-3.95,2.03-7.63,5.5-9.52l16.41-9.47c4.41-2.54,8.26-5.94,11.33-10,4.85-6.47,7.44-14.36,7.37-22.45v-238.04c.05-8.1-2.55-15.99-7.41-22.46-3.07-4.04-6.92-7.42-11.33-9.94l-16.37-9.47c-3.47-1.9-5.6-5.57-5.5-9.53v-2.8Z"/>
      <polygon class="cls-11" points="89.58 516.63 89.58 89.57 66.56 66.55 66.56 966.71 89.58 943.7 89.58 516.63 89.58 516.63"/>
      <path class="cls-33" d="m690.42,7.85h-347.58l10.74,18.6c5.68,10.15,16.46,16.37,28.09,16.21h269.93c11.63.16,22.41-6.06,28.08-16.21,0,0,10.74-18.6,10.74-18.6Z"/>
      <path class="cls-37" d="m342.84,1025.42h347.58l-10.73-18.6c-5.68-10.16-16.47-16.38-28.1-16.22h-269.92c-11.63-.16-22.42,6.06-28.09,16.22l-10.74,18.6h0Z"/>
      <path class="cls-27" d="m1024.46,8.8h-337.38c-3.96-.1-7.64,2.03-9.53,5.51l-9.47,16.4c-2.54,4.41-5.94,8.26-10,11.33-6.47,4.85-14.36,7.44-22.45,7.37h-238.04c-8.1.06-15.99-2.54-22.46-7.41-4.04-3.07-7.42-6.92-9.94-11.33l-9.47-16.4c-1.89-3.48-5.57-5.61-9.53-5.51H8.8l57.75,57.79h900.17l57.74-57.75Z"/>
      <path class="cls-36" d="m635.81,31.31h-238.35c-10.52,0-19.55-4.93-24.81-13.56l-6-9.9h-4.65c.49.66.93,1.34,1.34,2.05l9.48,16.41c5,8.95,14.51,14.44,24.77,14.3h238.09c10.26.14,19.76-5.35,24.77-14.3l9.47-16.41c.41-.71.86-1.39,1.35-2.05h-4.61l-6,9.9c-5.26,8.63-14.28,13.56-24.8,13.56h-.05Z"/>
      <polygon class="cls-29" points="516.64 99.49 933.77 99.49 943.69 89.57 516.64 89.57 89.58 89.57 99.49 99.49 516.64 99.49 516.64 99.49"/>
      <path class="cls-7" d="m689.87,8.8h334.59L1033.26,0h-346.18c-6.23-.09-12.12,2.83-15.81,7.85-.49.66-.94,1.34-1.35,2.05l-9.47,16.41c-5.01,8.95-14.51,14.44-24.77,14.3h-238.09c-10.26.14-19.77-5.35-24.77-14.3l-9.48-16.41c-.41-.71-.85-1.39-1.34-2.05C358.31,2.83,352.42-.09,346.19,0H0l8.8,8.8h337.39c3.96-.1,7.64,2.03,9.53,5.51l9.47,16.4c2.52,4.39,5.9,8.23,9.94,11.29,6.48,4.85,14.37,7.44,22.46,7.37h238.09c8.09.07,15.98-2.52,22.45-7.37,4.06-3.07,7.46-6.92,10-11.33l9.47-16.4c1.89-3.48,5.57-5.61,9.53-5.51l2.74.04Z"/>
      <polygon class="cls-3" points="516.64 89.57 943.69 89.57 966.72 66.55 66.55 66.55 89.58 89.57 516.64 89.57 516.64 89.57"/>
      <path class="cls-9" d="m1024.46,1024.46h-337.38c-3.96.1-7.64-2.02-9.53-5.5l-9.47-16.4c-2.54-4.41-5.94-8.27-10-11.34-6.47-4.85-14.36-7.44-22.45-7.37h-238.04c-8.09-.07-15.98,2.52-22.46,7.37-4.04,3.07-7.42,6.93-9.94,11.34l-9.47,16.4c-1.89,3.48-5.57,5.6-9.53,5.5H8.8l57.75-57.75h900.17l57.74,57.75Z"/>
      <path class="cls-36" d="m635.81,1002h-238.35c-10.52,0-19.55,4.93-24.81,13.55l-6,9.91h-4.65c.49-.66.93-1.35,1.34-2.06l9.48-16.4c5-8.96,14.51-14.45,24.77-14.3h238.09c10.26-.14,19.77,5.35,24.77,14.3l9.47,16.4c.41.71.86,1.4,1.35,2.06h-4.61l-6-9.91c-5.26-8.62-14.28-13.55-24.8-13.55h-.05Z"/>
      <polygon class="cls-6" points="516.64 933.77 933.77 933.77 943.69 943.69 516.64 943.69 89.58 943.69 99.49 933.77 516.64 933.77 516.64 933.77"/>
      <path class="cls-31" d="m689.87,1024.46h334.59l8.8,8.8h-346.18c-6.23.09-12.12-2.83-15.81-7.84-.49-.66-.94-1.35-1.35-2.06l-9.47-16.4c-5-8.95-14.51-14.44-24.77-14.3h-238.09c-10.26-.15-19.77,5.34-24.77,14.3l-9.48,16.4c-.41.71-.85,1.4-1.34,2.06-3.69,5.01-9.58,7.93-15.81,7.84H0l8.8-8.8h337.39c3.96.1,7.64-2.02,9.53-5.5l9.47-16.4c2.52-4.41,5.9-8.27,9.94-11.34,6.48-4.85,14.37-7.44,22.46-7.37h238.09c8.09-.07,15.98,2.52,22.45,7.37,4.06,3.07,7.46,6.93,10,11.34l9.47,16.4c1.89,3.48,5.57,5.6,9.53,5.5h2.74Z"/>
      <polygon class="cls-18" points="516.64 943.69 943.69 943.69 966.72 966.71 66.55 966.71 89.58 943.69 516.64 943.69 516.64 943.69"/>
      <path class="cls-16" d="m1025.42,342.84v347.58l-18.6-10.74c-10.15-5.67-16.38-16.45-16.21-28.08v-269.93c-.17-11.63,6.06-22.42,16.21-28.09l18.6-10.74h0Z"/>
      <path class="cls-24" d="m1024.46,8.8v337.39c.1,3.96-2.02,7.64-5.5,9.53l-16.4,9.47c-4.41,2.52-8.27,5.9-11.34,9.94-4.85,6.48-7.44,14.37-7.37,22.46v238.09c-.07,8.09,2.52,15.98,7.37,22.45,3.07,4.06,6.93,7.46,11.34,10l16.4,9.47c3.48,1.89,5.6,5.57,5.5,9.52v337.39l-57.74-57.75V66.55l57.74-57.75Z"/>
      <path class="cls-36" d="m1002,397.45v238.36c0,10.52,4.93,19.54,13.55,24.8l9.91,6v4.61c-.66-.48-1.34-.93-2.05-1.35l-16.41-9.42c-8.95-5-14.44-14.51-14.3-24.77v-238.09c-.15-10.26,5.34-19.77,14.3-24.78l16.41-9.47c.71-.42,1.39-.86,2.05-1.34v4.61l-9.91,6c-8.62,5.26-13.55,14.29-13.55,24.8v.04Z"/>
      <polygon class="cls-19" points="933.77 516.63 933.77 99.49 943.69 89.57 943.69 516.63 943.69 943.7 933.77 933.77 933.77 516.63 933.77 516.63"/>
      <path class="cls-8" d="m1024.46,343.39V8.8L1033.26,0v346.19c.09,6.23-2.83,12.11-7.84,15.81-.66.48-1.34.92-2.05,1.34l-16.37,9.47c-8.96,5.01-14.45,14.52-14.3,24.78v238.09c-.14,10.26,5.35,19.77,14.3,24.77l16.41,9.47c.71.42,1.39.87,2.05,1.35,5.01,3.69,7.93,9.58,7.84,15.8v346.19l-8.8-8.8v-337.39c.1-3.95-2.02-7.63-5.5-9.52l-16.4-9.47c-4.41-2.54-8.27-5.94-11.34-10-4.85-6.47-7.44-14.36-7.37-22.45v-238.04c-.07-8.09,2.52-15.98,7.37-22.46,3.07-4.04,6.93-7.42,11.34-9.94l16.4-9.47c3.48-1.89,5.6-5.57,5.5-9.53v-2.8h-.04Z"/>
      <polygon class="cls-25" points="943.69 516.63 943.69 89.57 966.72 66.55 966.72 966.71 943.69 943.7 943.69 516.63 943.69 516.63"/>
      <polygon class="cls-4" points="66.56 289.16 62.24 69.39 15.06 15.07 69.39 62.24 288.79 66.55 71.59 71.59 66.56 289.16 66.56 289.16"/>
      <polygon class="cls-15" points="966.72 289.16 971.03 69.39 1018.2 15.07 963.87 62.24 744.48 66.55 961.67 71.59 966.72 289.16 966.72 289.16"/>
      <polygon class="cls-13" points="66.56 744.1 62.24 963.87 15.07 1018.2 69.39 971.03 288.79 966.71 71.59 961.67 66.56 744.1 66.56 744.1"/>
      <polygon class="cls-30" points="966.72 744.1 971.03 963.87 1018.2 1018.2 963.87 971.03 744.48 966.71 961.67 961.67 966.72 744.1 966.72 744.1"/>
      <rect class="cls-20" x="298.05" y="331.94" width="509.67" height="389.57" transform="translate(-14.7 1037.57) rotate(-85.6)"/>
      <path class="cls-10" d="m723.22,355.16l-124.11,15.76c-20.11,2.56-40.52,1-60-4.61l-120.21-34.54c-23.92-6-40-29.28-38.07-55l1.17-15.52,384.31,26.26-1,19.71c-1.91,25.78-17.54,45.7-42.09,47.94Z"/>
      <path class="cls-21" d="m719.1,351.56l-124.1,15.76c-20.11,2.56-40.52.99-60-4.61l-120.21-34.55c-23.93-6-40.06-29.27-38.08-55l1.19-15.5,388.43,29.86-1.2,15.48c-1.97,25.75-21.48,46.32-46.03,48.56Z"/>
      <path class="cls-12" d="m560.34,458c-16.95-1.32-29.63-16.11-28.34-33.06l5.66-73.56c1.02-16.97,15.6-29.91,32.58-28.89,16.97,1.02,29.91,15.6,28.89,32.58-.02.35-.05.69-.08,1.04l-5.65,73.56c-1.32,16.95-16.11,29.63-33.06,28.34Zm10.17-132.3c-15.48-1.17-28.98,10.41-30.19,25.88l-5.66,73.56c-1.19,15.49,10.39,29.01,25.88,30.2s29.01-10.39,30.2-25.88l5.65-73.57c1.17-15.48-10.41-28.98-25.88-30.19Z"/>
      <circle class="cls-22" cx="569.15" cy="343.41" r="29.46"/>
      <circle class="cls-26" cx="569.17" cy="343.37" r="15.1" transform="translate(-56.91 120.04) rotate(-11.47)"/>
      <circle class="cls-28" cx="569.16" cy="343.46" r="7.02" transform="translate(-86.5 453.08) rotate(-40.6)"/>
      <circle class="cls-22" cx="562.07" cy="436.11" r="29.46" transform="translate(61.32 941.46) rotate(-83.07)"/>
      <circle class="cls-26" cx="562.03" cy="436.12" r="15.1" transform="translate(-148.52 470.74) rotate(-40.6)"/>
      <path class="cls-28" d="m569,436.62c-.31,3.85-3.68,6.73-7.54,6.42-3.85-.31-6.73-3.68-6.42-7.54.31-3.83,3.65-6.7,7.49-6.42,3.86.28,6.75,3.63,6.47,7.49,0,.02,0,.03,0,.05Z"/>
      <rect class="cls-1" x="316.74" y="247.48" width="364.79" height="503.16"/>
      <path class="cls-34" d="m428.85,347.61h204.54c5.57,0,5.57-8.62,0-8.62h-204.54c-5.56,0-5.56,8.62,0,8.62Z"/>
      <path class="cls-34" d="m364.21,398.72h269.18c5.57,0,5.57-8.63,0-8.63h-269.18c-5.56,0-5.56,8.63,0,8.63Z"/>
      <path class="cls-34" d="m364.21,449.82h269.18c5.57,0,5.57-8.62,0-8.62h-269.18c-5.56,0-5.56,8.62,0,8.62Z"/>
      <path class="cls-34" d="m364.21,500.93h269.18c5.57,0,5.57-8.63,0-8.63h-269.18c-5.56,0-5.56,8.63,0,8.63Z"/>
      <path class="cls-34" d="m364.21,552h269.18c5.57,0,5.57-8.62,0-8.62h-269.18c-5.56,0-5.56,8.62,0,8.62Z"/>
      <path class="cls-5" d="m370.2,680.3h115.06c3.13,0,3.13-4.85,0-4.85h-115.06c-3.13,0-3.13,4.85,0,4.85Z"/>
      <path class="cls-32" d="m463,658.34c-4.04,1.49-8.36,2.06-12.64,1.66l-.61-1.73c-.45-1.3-2.6-1.58-2.91,0-.1.5-1.13,4.91-2.8,2.74-1-1.28-.43-3.27-.26-4.72s.17-3.58-.9-4.87c-1.24-1.49-4.64-3-6.23-1-2.45,3,1.25,7.19-1.67,10.51-1.71,1.94-4.77.7-6.35-.89,2.09-3.51,1.64-7.48-.19-11-.44-.75-1.41-.99-2.15-.55-.23.13-.41.32-.55.55-1.49,3.13-2.31,7.35-1,10.68-1.4,1.01-3.25,1.13-4.76.3,2.83-4.33,3.65-9.68,2.26-14.66-.28-.88-1.22-1.36-2.1-1.08-.37.12-.69.36-.9.69-2.45,3.44-4.74,7-4.47,11.44.08,1.29.46,2.55,1.11,3.67-2.48,2.81-5.94,4.56-9.67,4.9-.06-.22-.11-.45-.18-.67-.26-.91-.56-1.81-.87-2.7,0-2.11,0-4.22.12-6.32.33-.52.71-1,1.09-1.59,1.75-2.58,3.32-5.3,4.67-8.11,5.46-11.24,7.63-23.79,6.27-36.21-.02-.89-.77-1.59-1.65-1.56-.39.01-.77.17-1.06.43-3.34,2.69-4.86,6.56-6.13,10.54-3.56,11.43-5.66,23.26-6.27,35.21l-.38.55c-1.79,2.51-.76,5.26.21,7.89,0,1.36,0,2.73.08,4.09.02.85.7,1.53,1.55,1.55h.07c.69,2.89,1.2,5.82,1.52,8.77.89,8.45.14,17-2.2,25.17-3.1-1.45-3.52-17.78-3.6-20-.11-5.67.1-11.35.63-17,.51-.3.77-.89.64-1.47l-.43-2.37c-.24-.79-1.08-1.24-1.87-1-.48.15-.85.52-1,1-1.09,6.88-1.47,13.86-1.14,20.82.1,3.62.42,7.23.83,10.83.34,2.92.54,6,1.69,8.77,1.33,3.18,6,5.85,7.32,1.32,1.82-6.29,2.73-12.8,2.7-19.35.01-5.26-.6-10.51-1.82-15.63,4.21-.5,8.1-2.47,11-5.56.63.46,1.33.83,2.06,1.09,2,.74,4.49.07,6.37-1.22.34.34.71.65,1.1.92,3.78,2.54,9.77,2.17,11.3-2.85.63-2.47.66-5.06.07-7.55.47-.29,1.09-.15,1.38.32h0c.91.74.4,3.26.29,4.27-.31,1.5-.15,3.05.46,4.45,1,1.78,2.42,3.12,4.54,3,1.28-.18,2.37-1,2.89-2.18.23.13.49.21.76.23,4.91.66,9.91.12,14.57-1.58,1.87-.65,1.07-3.61-.79-2.94Zm-55.72-21.77c.8-4.61,1.9-9.17,3.16-13.69,1-3.41,1.91-7,3.95-9.89.58,12.4-2.43,24.7-8.68,35.43.36-3.97.88-7.92,1.57-11.85Zm12.28,13.73c-.02,2.36-.61,4.67-1.7,6.76-.5-2.06.46-4.58,1.7-6.76Z"/>
      <path class="cls-32" d="m470.83,664.8c-.74.06-1.28.71-1.22,1.45.06.65.57,1.16,1.22,1.22.74-.06,1.28-.71,1.22-1.45-.06-.65-.57-1.16-1.22-1.22Z"/>
    </g>
  </g>
</svg>