<svg xmlns="http://www.w3.org/2000/svg" xmlns:xlink="http://www.w3.org/1999/xlink" viewBox="0 0 1033.26 1033.26"><defs><style>.cls-1{mask:url(#mask);}.cls-2,.cls-31,.cls-7{mix-blend-mode:multiply;}.cls-2{fill:url(#radial-gradient);}.cls-3{isolation:isolate;}.cls-4{fill:url(#Безымянный_градиент_238);}.cls-10,.cls-11,.cls-12,.cls-13,.cls-14,.cls-15,.cls-16,.cls-17,.cls-18,.cls-19,.cls-20,.cls-21,.cls-22,.cls-23,.cls-24,.cls-25,.cls-26,.cls-27,.cls-28,.cls-29,.cls-5,.cls-6,.cls-7,.cls-8,.cls-9{fill-rule:evenodd;}.cls-5{fill:url(#Безымянный_градиент_25);}.cls-6{fill:url(#linear-gradient);}.cls-7{fill:#3db6dd;}.cls-8{fill:url(#linear-gradient-2);}.cls-9{fill:url(#linear-gradient-3);}.cls-10{fill:url(#linear-gradient-4);}.cls-11{fill:url(#Безымянный_градиент_22);}.cls-12{fill:url(#Безымянный_градиент_22-2);}.cls-13{fill:url(#linear-gradient-5);}.cls-14{fill:url(#linear-gradient-6);}.cls-15{fill:url(#linear-gradient-7);}.cls-16{fill:url(#linear-gradient-8);}.cls-17{fill:url(#linear-gradient-9);}.cls-18{fill:url(#linear-gradient-10);}.cls-19{fill:url(#linear-gradient-11);}.cls-20{fill:url(#linear-gradient-12);}.cls-21{fill:url(#Безымянный_градиент_23);}.cls-22{fill:url(#linear-gradient-13);}.cls-23{fill:url(#linear-gradient-14);}.cls-24{fill:url(#linear-gradient-15);}.cls-25{fill:url(#linear-gradient-16);}.cls-26,.cls-27,.cls-28,.cls-29{mix-blend-mode:screen;}.cls-26{fill:url(#New_Gradient_Swatch_3);}.cls-27{fill:url(#New_Gradient_Swatch_3-2);}.cls-28{fill:url(#New_Gradient_Swatch_3-3);}.cls-29{fill:url(#New_Gradient_Swatch_3-4);}.cls-30{mask:url(#mask-2);}.cls-31{fill:url(#radial-gradient-2);}.cls-32{fill:#d4b7a3;}.cls-33{fill:#232020;opacity:0.09;}.cls-34{fill:#dabfaf;}.cls-35{fill:#ffdd7d;}.cls-36{fill:#bb7453;}.cls-37{fill:#c1b39a;}.cls-38{fill:#414042;}.cls-39{fill:#fffff4;}.cls-40{fill:#bbbcc0;}.cls-41{fill:#00927e;}.cls-42{fill:#33444b;}.cls-43{filter:url(#luminosity-noclip);}</style><filter id="luminosity-noclip" x="462.71" y="-8937.52" width="417.55" height="32766" filterUnits="userSpaceOnUse" color-interpolation-filters="sRGB"><feFlood flood-color="#fff" result="bg"/><feBlend in="SourceGraphic" in2="bg"/></filter><mask id="mask" x="462.71" y="-8937.52" width="417.55" height="32766" maskUnits="userSpaceOnUse"><g class="cls-43"/></mask><radialGradient id="radial-gradient" cx="-4088.51" cy="-1259.38" r="54.45" gradientTransform="matrix(0, -1.07, -3.83, 0, -4157.47, -3624.58)" gradientUnits="userSpaceOnUse"><stop offset="0" stop-color="#666"/><stop offset="0.01" stop-color="#656565"/><stop offset="0.47" stop-color="#2f2f2f"/><stop offset="0.81" stop-color="#0d0d0d"/><stop offset="1"/></radialGradient><radialGradient id="Безымянный_градиент_238" cx="626.1" cy="369.32" r="484.42" gradientTransform="translate(-34.39 205.19) scale(0.88 0.84)" gradientUnits="userSpaceOnUse"><stop offset="0" stop-color="#e4f3fb"/><stop offset="0.43" stop-color="#b1c5e3"/><stop offset="1" stop-color="#6a83c1"/></radialGradient><radialGradient id="Безымянный_градиент_25" cx="25.26" cy="516.63" r="123.5" gradientUnits="userSpaceOnUse"><stop offset="0" stop-color="#e3fffb"/><stop offset="0.12" stop-color="#caeaf2"/><stop offset="0.73" stop-color="#4c7dc4"/><stop offset="1" stop-color="#1951b2"/></radialGradient><linearGradient id="linear-gradient" x1="8.8" y1="516.63" x2="66.56" y2="516.63" gradientUnits="userSpaceOnUse"><stop offset="0" stop-color="#9fa8bd"/><stop offset="0.57" stop-color="#8991a3"/><stop offset="1" stop-color="#7c8494"/></linearGradient><linearGradient id="linear-gradient-2" x1="89.58" y1="516.63" x2="99.49" y2="516.63" gradientUnits="userSpaceOnUse"><stop offset="0" stop-color="#494c57"/><stop offset="1" stop-color="#50545e"/></linearGradient><linearGradient id="linear-gradient-3" y1="516.63" x2="49.41" y2="516.63" gradientUnits="userSpaceOnUse"><stop offset="0" stop-color="#5c616e"/><stop offset="0.41" stop-color="#696e7d"/><stop offset="1" stop-color="#818899"/></linearGradient><linearGradient id="linear-gradient-4" x1="66.56" y1="516.63" x2="89.58" y2="516.63" gradientUnits="userSpaceOnUse"><stop offset="0" stop-color="#494c57"/><stop offset="0.59" stop-color="#545866"/><stop offset="1" stop-color="#5d6273"/></linearGradient><radialGradient id="Безымянный_градиент_22" cx="516.63" cy="25.26" r="123.5" gradientUnits="userSpaceOnUse"><stop offset="0" stop-color="#e3fffb"/><stop offset="0.12" stop-color="#caeaf3"/><stop offset="0.73" stop-color="#4c7dc7"/><stop offset="1" stop-color="#1952b6"/></radialGradient><radialGradient id="Безымянный_градиент_22-2" cx="1220.98" cy="4549.02" r="123.5" gradientTransform="translate(1737.61 5557.03) rotate(180)" xlink:href="#Безымянный_градиент_22"/><linearGradient id="linear-gradient-5" x1="516.63" y1="66.55" x2="516.63" y2="8.8" gradientUnits="userSpaceOnUse"><stop offset="0" stop-color="#c1cce6"/><stop offset="0.17" stop-color="#b6c0d8"/><stop offset="0.72" stop-color="#959fb2"/><stop offset="1" stop-color="#8992a3"/></linearGradient><linearGradient id="linear-gradient-6" x1="516.63" y1="99.49" x2="516.63" y2="89.57" gradientUnits="userSpaceOnUse"><stop offset="0" stop-color="#50545e"/><stop offset="0.33" stop-color="#474b58"/><stop offset="1" stop-color="#383d4f"/></linearGradient><linearGradient id="linear-gradient-7" x1="516.63" y1="49.41" x2="516.63" y2="0" xlink:href="#linear-gradient-5"/><linearGradient id="linear-gradient-8" x1="516.63" y1="89.57" x2="516.63" y2="66.55" xlink:href="#linear-gradient-6"/><linearGradient id="linear-gradient-9" x1="516.63" y1="1024.46" x2="516.63" y2="966.71" gradientUnits="userSpaceOnUse"><stop offset="0" stop-color="#50545e"/><stop offset="0.01" stop-color="#50545e"/><stop offset="1" stop-color="#414657"/></linearGradient><linearGradient id="linear-gradient-10" x1="516.63" y1="943.69" x2="516.63" y2="933.77" xlink:href="#linear-gradient-5"/><linearGradient id="linear-gradient-11" x1="516.63" y1="1033.26" x2="516.63" y2="983.85" gradientUnits="userSpaceOnUse"><stop offset="0" stop-color="#272a33"/><stop offset="0.62" stop-color="#313542"/><stop offset="1" stop-color="#383d4d"/></linearGradient><linearGradient id="linear-gradient-12" x1="516.63" y1="966.71" x2="516.63" y2="943.69" gradientUnits="userSpaceOnUse"><stop offset="0" stop-color="#c1cce6"/><stop offset="0.36" stop-color="#9ea8bf"/><stop offset="0.78" stop-color="#7b8599"/><stop offset="1" stop-color="#6d778a"/></linearGradient><radialGradient id="Безымянный_градиент_23" cx="1008.01" cy="516.63" r="123.5" gradientUnits="userSpaceOnUse"><stop offset="0" stop-color="#e3fffb"/><stop offset="0.12" stop-color="#caeaf2"/><stop offset="0.73" stop-color="#4c7dc5"/><stop offset="1" stop-color="#1951b3"/></radialGradient><linearGradient id="linear-gradient-13" x1="966.72" y1="516.63" x2="1024.46" y2="516.63" xlink:href="#linear-gradient-2"/><linearGradient id="linear-gradient-14" x1="933.77" y1="516.63" x2="943.69" y2="516.63" gradientUnits="userSpaceOnUse"><stop offset="0" stop-color="#7c8494"/><stop offset="0.43" stop-color="#8991a3"/><stop offset="1" stop-color="#9fa8bd"/></linearGradient><linearGradient id="linear-gradient-15" x1="983.85" y1="516.63" x2="1033.26" y2="516.63" gradientUnits="userSpaceOnUse"><stop offset="0" stop-color="#3c3e47"/><stop offset="1" stop-color="#43474f"/></linearGradient><linearGradient id="linear-gradient-16" x1="943.69" y1="516.63" x2="966.72" y2="516.63" xlink:href="#linear-gradient-14"/><radialGradient id="New_Gradient_Swatch_3" cx="58.08" cy="-18.52" r="302.6" gradientUnits="userSpaceOnUse"><stop offset="0" stop-color="#e0f2ff"/><stop offset="0.09" stop-color="#bacbd4"/><stop offset="0.23" stop-color="#8a989d"/><stop offset="0.37" stop-color="#606c6d"/><stop offset="0.5" stop-color="#3d4846"/><stop offset="0.63" stop-color="#222c27"/><stop offset="0.76" stop-color="#0f1811"/><stop offset="0.89" stop-color="#040c04"/><stop offset="1" stop-color="#000800"/></radialGradient><radialGradient id="New_Gradient_Swatch_3-2" cx="913.33" cy="-125.16" r="439.76" xlink:href="#New_Gradient_Swatch_3"/><radialGradient id="New_Gradient_Swatch_3-3" cx="181.79" cy="873.68" r="429.92" xlink:href="#New_Gradient_Swatch_3"/><radialGradient id="New_Gradient_Swatch_3-4" cx="847.21" cy="820.36" r="426.2" xlink:href="#New_Gradient_Swatch_3"/><mask id="mask-2" x="462.71" y="701.15" width="417.55" height="116.76" maskUnits="userSpaceOnUse"><g class="cls-1"><ellipse class="cls-2" cx="671.49" cy="759.53" rx="208.78" ry="58.38"/></g></mask><radialGradient id="radial-gradient-2" cx="-4088.51" cy="-1259.38" r="54.45" gradientTransform="matrix(0, -1.07, -3.83, 0, -4157.47, -3624.58)" gradientUnits="userSpaceOnUse"><stop offset="0" stop-color="#729eb1"/><stop offset="0.15" stop-color="#7da4b4"/><stop offset="0.7" stop-color="#9eb8bf"/><stop offset="1" stop-color="#abc0c3"/></radialGradient></defs><g class="cls-3"><g id="Слой_2" data-name="Слой 2"><g id="Layer_1" data-name="Layer 1"><rect class="cls-4" x="99.49" y="99.49" width="834.28" height="834.28"/><path class="cls-5" d="M7.85,342.84V690.42l18.6-10.74A31.67,31.67,0,0,0,42.66,651.6V381.67a31.67,31.67,0,0,0-16.21-28.09L7.85,342.84Z"/><path class="cls-6" d="M8.8,8.8V346.19a10.56,10.56,0,0,0,5.5,9.53l16.41,9.47A37.72,37.72,0,0,1,42,375.13a37,37,0,0,1,7.37,22.46V635.68A36.93,36.93,0,0,1,42,658.13a37.88,37.88,0,0,1-11.33,10L14.3,677.55a10.55,10.55,0,0,0-5.5,9.52v337.39l57.75-57.75V66.55L8.8,8.8Z"/><path class="cls-7" d="M31.31,397.45V635.81c0,10.52-4.94,19.54-13.56,24.8l-9.9,6v4.61a21.52,21.52,0,0,1,2.06-1.35l16.4-9.47a27.94,27.94,0,0,0,14.3-24.77V397.59a28,28,0,0,0-14.3-24.78l-16.4-9.47A21.45,21.45,0,0,1,7.85,362v4.61l9.9,6c8.62,5.26,13.56,14.29,13.56,24.8Z"/><polygon class="cls-8" points="99.49 516.63 99.49 99.49 89.58 89.57 89.58 516.63 89.58 943.7 99.49 933.77 99.49 516.63 99.49 516.63"/><path class="cls-9" d="M8.8,343.39V8.8L0,0V346.19A19.3,19.3,0,0,0,7.85,362a21.45,21.45,0,0,0,2.06,1.34l16.4,9.47a28,28,0,0,1,14.3,24.78V635.68a27.94,27.94,0,0,1-14.3,24.77l-16.4,9.47a21.52,21.52,0,0,0-2.06,1.35A19.28,19.28,0,0,0,0,687.07v346.19l8.8-8.8V687.07a10.55,10.55,0,0,1,5.5-9.52l16.41-9.47a37.88,37.88,0,0,0,11.33-10,36.93,36.93,0,0,0,7.37-22.45V397.59A37,37,0,0,0,42,375.13a37.72,37.72,0,0,0-11.33-9.94L14.3,355.72a10.56,10.56,0,0,1-5.5-9.53v-2.8Z"/><polygon class="cls-10" points="89.58 516.63 89.58 89.57 66.56 66.55 66.56 966.71 89.58 943.7 89.58 516.63 89.58 516.63"/><path class="cls-11" d="M690.42,7.85H342.84l10.74,18.6a31.67,31.67,0,0,0,28.09,16.21H651.6a31.66,31.66,0,0,0,28.08-16.21l10.74-18.6Z"/><path class="cls-12" d="M342.84,1025.42H690.42l-10.73-18.6a31.69,31.69,0,0,0-28.1-16.22H381.67a31.66,31.66,0,0,0-28.09,16.22l-10.74,18.6Z"/><path class="cls-13" d="M1024.46,8.8H687.08a10.54,10.54,0,0,0-9.53,5.51l-9.47,16.4a37.88,37.88,0,0,1-10,11.33,36.84,36.84,0,0,1-22.45,7.37H397.59A36.89,36.89,0,0,1,375.13,42a37.72,37.72,0,0,1-9.94-11.33l-9.47-16.4a10.54,10.54,0,0,0-9.53-5.51H8.8L66.55,66.55H966.72L1024.46,8.8Z"/><path class="cls-7" d="M635.81,31.31H397.46c-10.52,0-19.55-4.93-24.81-13.56l-6-9.9H362a20.65,20.65,0,0,1,1.34,2.05l9.48,16.41a27.93,27.93,0,0,0,24.77,14.3H635.68a27.94,27.94,0,0,0,24.77-14.3L669.92,9.9a22.68,22.68,0,0,1,1.35-2.05h-4.61l-6,9.9c-5.26,8.63-14.28,13.56-24.8,13.56Z"/><polygon class="cls-14" points="516.64 99.49 933.77 99.49 943.69 89.57 516.64 89.57 89.58 89.57 99.49 99.49 516.64 99.49 516.64 99.49"/><path class="cls-15" d="M689.87,8.8h334.59l8.8-8.8H687.08a19.28,19.28,0,0,0-15.81,7.85,22.68,22.68,0,0,0-1.35,2.05l-9.47,16.41a27.94,27.94,0,0,1-24.77,14.3H397.59a27.93,27.93,0,0,1-24.77-14.3L363.34,9.9A20.65,20.65,0,0,0,362,7.85,19.28,19.28,0,0,0,346.19,0H0L8.8,8.8H346.19a10.54,10.54,0,0,1,9.53,5.51l9.47,16.4A37.72,37.72,0,0,0,375.13,42a36.89,36.89,0,0,0,22.46,7.37H635.68A36.84,36.84,0,0,0,658.13,42a37.88,37.88,0,0,0,10-11.33l9.47-16.4a10.54,10.54,0,0,1,9.53-5.51Z"/><polygon class="cls-16" points="516.64 89.57 943.69 89.57 966.72 66.55 66.55 66.55 89.58 89.57 516.64 89.57 516.64 89.57"/><path class="cls-17" d="M1024.46,1024.46H687.08a10.55,10.55,0,0,1-9.53-5.5l-9.47-16.4a37.92,37.92,0,0,0-10-11.34,36.91,36.91,0,0,0-22.45-7.37H397.59a37,37,0,0,0-22.46,7.37,37.76,37.76,0,0,0-9.94,11.34l-9.47,16.4a10.55,10.55,0,0,1-9.53,5.5H8.8l57.75-57.75H966.72l57.74,57.75Z"/><path class="cls-7" d="M635.81,1002H397.46c-10.52,0-19.55,4.93-24.81,13.55l-6,9.91H362a20.8,20.8,0,0,0,1.34-2.06l9.48-16.4a27.91,27.91,0,0,1,24.77-14.3H635.68a27.93,27.93,0,0,1,24.77,14.3l9.47,16.4a22.85,22.85,0,0,0,1.35,2.06h-4.61l-6-9.91c-5.26-8.62-14.28-13.55-24.8-13.55Z"/><polygon class="cls-18" points="516.64 933.77 933.77 933.77 943.69 943.69 516.64 943.69 89.58 943.69 99.49 933.77 516.64 933.77 516.64 933.77"/><path class="cls-19" d="M689.87,1024.46h334.59l8.8,8.8H687.08a19.28,19.28,0,0,1-15.81-7.84,22.85,22.85,0,0,1-1.35-2.06l-9.47-16.4a27.93,27.93,0,0,0-24.77-14.3H397.59a27.91,27.91,0,0,0-24.77,14.3l-9.48,16.4a20.8,20.8,0,0,1-1.34,2.06,19.28,19.28,0,0,1-15.81,7.84H0l8.8-8.8H346.19a10.55,10.55,0,0,0,9.53-5.5l9.47-16.4a37.76,37.76,0,0,1,9.94-11.34,37,37,0,0,1,22.46-7.37H635.68a36.91,36.91,0,0,1,22.45,7.37,37.92,37.92,0,0,1,10,11.34l9.47,16.4a10.55,10.55,0,0,0,9.53,5.5Z"/><polygon class="cls-20" points="516.64 943.69 943.69 943.69 966.72 966.71 66.55 966.71 89.58 943.69 516.64 943.69 516.64 943.69"/><path class="cls-21" d="M1025.42,342.84V690.42l-18.6-10.74a31.65,31.65,0,0,1-16.21-28.08V381.67a31.65,31.65,0,0,1,16.21-28.09l18.6-10.74Z"/><path class="cls-22" d="M1024.46,8.8V346.19a10.55,10.55,0,0,1-5.5,9.53l-16.4,9.47a37.76,37.76,0,0,0-11.34,9.94,37,37,0,0,0-7.37,22.46V635.68a36.93,36.93,0,0,0,7.37,22.45,37.92,37.92,0,0,0,11.34,10l16.4,9.47a10.53,10.53,0,0,1,5.5,9.52v337.39l-57.74-57.75V66.55L1024.46,8.8Z"/><path class="cls-7" d="M1002,397.45V635.81c0,10.52,4.93,19.54,13.55,24.8l9.91,6v4.61c-.66-.48-1.34-.93-2.05-1.35L1007,660.45a27.93,27.93,0,0,1-14.3-24.77V397.59a27.93,27.93,0,0,1,14.3-24.78l16.41-9.47c.71-.42,1.39-.86,2.05-1.34v4.61l-9.91,6c-8.62,5.26-13.55,14.29-13.55,24.8Z"/><polygon class="cls-23" points="933.77 516.63 933.77 99.49 943.69 89.57 943.69 516.63 943.69 943.7 933.77 933.77 933.77 516.63 933.77 516.63"/><path class="cls-24" d="M1024.46,343.39V8.8l8.8-8.8V346.19a19.29,19.29,0,0,1-7.84,15.81c-.66.48-1.34.92-2.05,1.34L1007,372.81a27.93,27.93,0,0,0-14.3,24.78V635.68a27.93,27.93,0,0,0,14.3,24.77l16.41,9.47c.71.42,1.39.87,2.05,1.35a19.27,19.27,0,0,1,7.84,15.8v346.19l-8.8-8.8V687.07a10.53,10.53,0,0,0-5.5-9.52l-16.4-9.47a37.92,37.92,0,0,1-11.34-10,36.93,36.93,0,0,1-7.37-22.45V397.59a37,37,0,0,1,7.37-22.46,37.76,37.76,0,0,1,11.34-9.94l16.4-9.47a10.55,10.55,0,0,0,5.5-9.53v-2.8Z"/><polygon class="cls-25" points="943.69 516.63 943.69 89.57 966.72 66.55 966.72 966.71 943.69 943.7 943.69 516.63 943.69 516.63"/><polygon class="cls-26" points="66.56 289.16 62.24 69.39 15.06 15.07 69.39 62.24 288.79 66.55 71.59 71.59 66.56 289.16 66.56 289.16"/><polygon class="cls-27" points="966.72 289.16 971.03 69.39 1018.2 15.07 963.87 62.24 744.48 66.55 961.67 71.59 966.72 289.16 966.72 289.16"/><polygon class="cls-28" points="66.56 744.1 62.24 963.87 15.07 1018.2 69.39 971.03 288.79 966.71 71.59 961.67 66.56 744.1 66.56 744.1"/><polygon class="cls-29" points="966.72 744.1 971.03 963.87 1018.2 1018.2 963.87 971.03 744.48 966.71 961.67 961.67 966.72 744.1 966.72 744.1"/><g class="cls-30"><ellipse class="cls-31" cx="671.49" cy="759.53" rx="208.78" ry="58.38"/></g><rect class="cls-32" x="298.02" y="331.9" width="509.67" height="389.57" transform="translate(-14.66 1037.54) rotate(-85.6)"/><path class="cls-33" d="M723.22,355.16,599.11,370.92a148.83,148.83,0,0,1-60-4.61L418.9,331.77c-23.92-6-40-29.28-38.07-55L382,261.25l384.31,26.26-1,19.71C763.4,333,747.77,352.92,723.22,355.16Z"/><path class="cls-34" d="M719.1,351.56,595,367.32a149,149,0,0,1-60-4.61L414.79,328.16c-23.93-6-40.06-29.27-38.08-55l1.19-15.5,388.43,29.86L765.13,303C763.16,328.75,743.65,349.32,719.1,351.56Z"/><path class="cls-35" d="M560.34,458A30.82,30.82,0,0,1,532,424.94l5.66-73.56a30.79,30.79,0,1,1,61.39,4.72l-5.65,73.56A30.82,30.82,0,0,1,560.34,458Zm10.17-132.3a28.15,28.15,0,0,0-30.19,25.88l-5.66,73.56a28.12,28.12,0,0,0,56.08,4.32l5.65-73.57A28.15,28.15,0,0,0,570.51,325.7Z"/><circle class="cls-36" cx="569.15" cy="343.41" r="29.46"/><circle class="cls-37" cx="569.15" cy="343.41" r="15.1" transform="translate(-56.9 119.99) rotate(-11.47)"/><circle class="cls-38" cx="569.15" cy="343.41" r="7.02" transform="translate(-86.46 453.1) rotate(-40.6)"/><circle class="cls-36" cx="562.03" cy="436.08" r="29.46" transform="translate(61.36 941.42) rotate(-83.07)"/><circle class="cls-37" cx="562.03" cy="436.08" r="15.1" transform="translate(-148.49 470.77) rotate(-40.6)"/><path class="cls-38" d="M569,436.62a7,7,0,1,1-6.47-7.54A7,7,0,0,1,569,436.62Z"/><rect class="cls-39" x="316.74" y="247.48" width="364.79" height="503.16"/><path class="cls-40" d="M428.85,347.61H633.39c5.57,0,5.57-8.62,0-8.62H428.85c-5.56,0-5.56,8.62,0,8.62Z"/><path class="cls-40" d="M364.21,398.72H633.39c5.57,0,5.57-8.63,0-8.63H364.21c-5.56,0-5.56,8.63,0,8.63Z"/><path class="cls-40" d="M364.21,449.82H633.39c5.57,0,5.57-8.62,0-8.62H364.21c-5.56,0-5.56,8.62,0,8.62Z"/><path class="cls-40" d="M364.21,500.93H633.39c5.57,0,5.57-8.63,0-8.63H364.21c-5.56,0-5.56,8.63,0,8.63Z"/><path class="cls-40" d="M364.21,552H633.39c5.57,0,5.57-8.62,0-8.62H364.21c-5.56,0-5.56,8.62,0,8.62Z"/><path class="cls-41" d="M370.2,680.3H485.26c3.13,0,3.13-4.85,0-4.85H370.2c-3.13,0-3.13,4.85,0,4.85Z"/><path class="cls-42" d="M463,658.34A28.7,28.7,0,0,1,450.36,660l-.61-1.73c-.45-1.3-2.6-1.58-2.91,0-.1.5-1.13,4.91-2.8,2.74-1-1.28-.43-3.27-.26-4.72s.17-3.58-.9-4.87c-1.24-1.49-4.64-3-6.23-1-2.45,3,1.25,7.19-1.67,10.51-1.71,1.94-4.77.7-6.35-.89,2.09-3.51,1.64-7.48-.19-11a1.57,1.57,0,0,0-2.7,0c-1.49,3.13-2.31,7.35-1,10.68a4.46,4.46,0,0,1-4.76.3,18,18,0,0,0,2.26-14.66,1.67,1.67,0,0,0-3-.39c-2.45,3.44-4.74,7-4.47,11.44a8.34,8.34,0,0,0,1.11,3.67,14.7,14.7,0,0,1-9.67,4.9c-.06-.22-.11-.45-.18-.67-.26-.91-.56-1.81-.87-2.7,0-2.11,0-4.22.12-6.32.33-.52.71-1,1.09-1.59a63.36,63.36,0,0,0,4.67-8.11,66.34,66.34,0,0,0,6.27-36.21,1.61,1.61,0,0,0-2.71-1.13c-3.34,2.69-4.86,6.56-6.13,10.54A142.74,142.74,0,0,0,402.2,654l-.38.55c-1.79,2.51-.76,5.26.21,7.89,0,1.36,0,2.73.08,4.09a1.59,1.59,0,0,0,1.55,1.55h.07a70.21,70.21,0,0,1,1.52,8.77,66.26,66.26,0,0,1-2.2,25.17c-3.1-1.45-3.52-17.78-3.6-20a148.82,148.82,0,0,1,.63-17,1.36,1.36,0,0,0,.64-1.47l-.43-2.37a1.5,1.5,0,0,0-2.87,0A102,102,0,0,0,396.28,682c.1,3.62.42,7.23.83,10.83.34,2.92.54,6,1.69,8.77,1.33,3.18,6,5.85,7.32,1.32a68.46,68.46,0,0,0,2.7-19.35A66.86,66.86,0,0,0,407,667.94,18,18,0,0,0,418,662.38a8.27,8.27,0,0,0,2.06,1.09c2,.74,4.49.07,6.37-1.22a7.66,7.66,0,0,0,1.1.92c3.78,2.54,9.77,2.17,11.3-2.85a15.8,15.8,0,0,0,.07-7.55,1,1,0,0,1,1.38.33c.91.73.4,3.25.29,4.26a7.44,7.44,0,0,0,.46,4.45c1,1.78,2.42,3.12,4.54,3a3.72,3.72,0,0,0,2.89-2.18,1.94,1.94,0,0,0,.76.23,30.61,30.61,0,0,0,14.57-1.58C465.66,660.63,464.86,657.67,463,658.34Zm-55.72-21.77c.8-4.61,1.9-9.17,3.16-13.69,1-3.41,1.91-7,3.95-9.89a64.4,64.4,0,0,1-8.68,35.43Q406.25,642.47,407.28,636.57Zm12.28,13.73a14.85,14.85,0,0,1-1.7,6.76C417.36,655,418.32,652.48,419.56,650.3Z"/><path class="cls-42" d="M470.83,664.8a1.34,1.34,0,0,0,0,2.67A1.34,1.34,0,0,0,470.83,664.8Z"/></g></g></g></svg>