<?xml version="1.0" encoding="UTF-8"?>
<svg id="_Слой_2" data-name="Слой 2" xmlns="http://www.w3.org/2000/svg" xmlns:xlink="http://www.w3.org/1999/xlink" viewBox="0 0 1033.3 1033.26">
  <defs>
    <style>
      .cls-1 {
        fill: url(#_Безымянный_градиент_3);
      }

      .cls-1, .cls-2, .cls-3, .cls-4, .cls-5, .cls-6, .cls-7, .cls-8, .cls-9, .cls-10, .cls-11, .cls-12, .cls-13, .cls-14, .cls-15, .cls-16, .cls-17, .cls-18, .cls-19, .cls-20, .cls-21, .cls-22, .cls-23, .cls-24, .cls-25, .cls-26, .cls-27, .cls-28, .cls-29, .cls-30, .cls-31 {
        stroke-width: 0px;
      }

      .cls-1, .cls-2, .cls-3, .cls-4, .cls-5, .cls-6, .cls-7, .cls-8, .cls-9, .cls-11, .cls-13, .cls-14, .cls-16, .cls-17, .cls-18, .cls-19, .cls-20, .cls-21, .cls-22, .cls-23, .cls-24, .cls-25, .cls-26, .cls-27, .cls-28, .cls-29, .cls-30, .cls-31 {
        fill-rule: evenodd;
      }

      .cls-2 {
        fill: url(#_Безымянный_градиент_37-2);
      }

      .cls-3 {
        fill: url(#_Безымянный_градиент_10-2);
      }

      .cls-4 {
        fill: url(#_Безымянный_градиент_22);
      }

      .cls-5 {
        fill: url(#_Безымянный_градиент_11-3);
      }

      .cls-6 {
        fill: url(#_Безымянный_градиент_11-2);
      }

      .cls-7 {
        fill: url(#_Безымянный_градиент_20);
      }

      .cls-8 {
        fill: url(#_Безымянный_градиент_13);
      }

      .cls-9 {
        fill: url(#_Безымянный_градиент_6);
      }

      .cls-10 {
        fill: #1d0b38;
      }

      .cls-11 {
        fill: url(#_Безымянный_градиент_22-3);
      }

      .cls-12 {
        fill: url(#_Безымянный_градиент_39);
      }

      .cls-13 {
        fill: url(#_Безымянный_градиент_22-2);
      }

      .cls-14 {
        fill: url(#_Безымянный_градиент_38-3);
      }

      .cls-15 {
        fill: none;
      }

      .cls-16 {
        fill: url(#_Безымянный_градиент_18);
      }

      .cls-17 {
        fill: url(#_Безымянный_градиент_16);
      }

      .cls-18 {
        fill: url(#_Безымянный_градиент_19);
      }

      .cls-19 {
        fill: url(#_Безымянный_градиент_37-4);
      }

      .cls-20 {
        fill: url(#_Безымянный_градиент_5);
      }

      .cls-21 {
        fill: url(#_Безымянный_градиент_18-2);
      }

      .cls-22 {
        fill: url(#_Безымянный_градиент_19-2);
      }

      .cls-23 {
        fill: url(#_Безымянный_градиент_37);
      }

      .cls-24 {
        fill: url(#_Безымянный_градиент_11);
      }

      .cls-25 {
        fill: url(#_Безымянный_градиент_10);
      }

      .cls-26 {
        fill: url(#_Безымянный_градиент_37-3);
      }

      .cls-27 {
        fill: url(#_Безымянный_градиент_38);
      }

      .cls-28 {
        fill: url(#_Безымянный_градиент_22-4);
      }

      .cls-29 {
        fill: url(#_Безымянный_градиент_15);
      }

      .cls-30 {
        fill: url(#_Безымянный_градиент_38-2);
      }

      .cls-31 {
        fill: url(#_Безымянный_градиент_38-4);
      }
    </style>
    <radialGradient id="_Безымянный_градиент_38" data-name="Безымянный градиент 38" cx="-2246.51" cy="-2052.27" fx="-2246.51" fy="-2052.27" r="123.51" gradientTransform="translate(2763.37 -2026.06) scale(1 -1)" gradientUnits="userSpaceOnUse">
      <stop offset="0" stop-color="#e3fffb"/>
      <stop offset=".23" stop-color="#c4c7e7"/>
      <stop offset=".76" stop-color="#7d49ba"/>
      <stop offset="1" stop-color="#6016a8"/>
    </radialGradient>
    <radialGradient id="_Безымянный_градиент_37" data-name="Безымянный градиент 37" cx="-4603.89" cy="4185.08" fx="-4603.89" fy="4185.08" r="109.94" gradientTransform="translate(-4087.09 -4159.9) rotate(-180) scale(1 -1)" gradientUnits="userSpaceOnUse">
      <stop offset="0" stop-color="#72449f"/>
      <stop offset=".29" stop-color="#603589"/>
      <stop offset="1" stop-color="#371257"/>
    </radialGradient>
    <radialGradient id="_Безымянный_градиент_38-2" data-name="Безымянный градиент 38" cx="-5932.93" cy="-1293.52" fx="-5932.93" fy="-1293.52" r="123.51" gradientTransform="translate(-1268.22 -5415.13) rotate(-90) scale(1 -1)" xlink:href="#_Безымянный_градиент_38"/>
    <radialGradient id="_Безымянный_градиент_37-2" data-name="Безымянный градиент 37" cx="-917.48" cy="3426.33" fx="-917.48" fy="3426.33" r="109.94" gradientTransform="translate(-3402.06 1435.33) rotate(90) scale(1 -1)" xlink:href="#_Безымянный_градиент_37"/>
    <radialGradient id="_Безымянный_градиент_38-3" data-name="Безымянный градиент 38" cx="-2013.4" cy="3038.62" fx="-2013.4" fy="3038.62" r="123.51" gradientTransform="translate(-2031.57 2531.21) rotate(90) scale(1 -1)" xlink:href="#_Безымянный_градиент_38"/>
    <radialGradient id="_Безымянный_градиент_37-3" data-name="Безымянный градиент 37" cx="-4837.05" cy="-905.81" fx="-4837.05" fy="-905.81" r="109.94" gradientTransform="translate(102.27 -4319.25) rotate(-90) scale(1 -1)" xlink:href="#_Безымянный_градиент_37"/>
    <radialGradient id="_Безымянный_градиент_39" data-name="Безымянный градиент 39" cx="1211.56" cy="-2183.45" fx="1211.56" fy="-2183.45" r="484.38" gradientTransform="translate(-549.54 -1320.4) scale(.88 -.84)" gradientUnits="userSpaceOnUse">
      <stop offset="0" stop-color="#d4bedd"/>
      <stop offset=".56" stop-color="#ab8cbf"/>
      <stop offset="1" stop-color="#8861a6"/>
    </radialGradient>
    <linearGradient id="_Безымянный_градиент_3" data-name="Безымянный градиент 3" x1="8.8" y1="-1436.19" x2="66.55" y2="-1436.19" gradientTransform="translate(0 -919.56) scale(1 -1)" gradientUnits="userSpaceOnUse">
      <stop offset="0" stop-color="#9fa8bd"/>
      <stop offset=".57" stop-color="#8991a3"/>
      <stop offset="1" stop-color="#7c8494"/>
    </linearGradient>
    <linearGradient id="_Безымянный_градиент_18" data-name="Безымянный градиент 18" x1="89.58" y1="-1436.19" x2="99.49" y2="-1436.19" gradientTransform="translate(0 -919.56) scale(1 -1)" gradientUnits="userSpaceOnUse">
      <stop offset="0" stop-color="#494c57"/>
      <stop offset="1" stop-color="#50545e"/>
    </linearGradient>
    <linearGradient id="_Безымянный_градиент_5" data-name="Безымянный градиент 5" x1="0" y1="-1436.19" x2="49.41" y2="-1436.19" gradientTransform="translate(0 -919.56) scale(1 -1)" gradientUnits="userSpaceOnUse">
      <stop offset="0" stop-color="#5c616e"/>
      <stop offset=".41" stop-color="#696e7d"/>
      <stop offset="1" stop-color="#818899"/>
    </linearGradient>
    <linearGradient id="_Безымянный_градиент_6" data-name="Безымянный градиент 6" x1="66.56" y1="-1436.19" x2="89.58" y2="-1436.19" gradientTransform="translate(0 -919.56) scale(1 -1)" gradientUnits="userSpaceOnUse">
      <stop offset="0" stop-color="#494c57"/>
      <stop offset=".59" stop-color="#545866"/>
      <stop offset="1" stop-color="#5d6273"/>
    </linearGradient>
    <radialGradient id="_Безымянный_градиент_38-4" data-name="Безымянный градиент 38" cx="-7367.09" cy="4061.41" fx="-7367.09" fy="4061.41" r="123.5" gradientTransform="translate(-6850.46 -3053.4) rotate(-180) scale(1 -1)" xlink:href="#_Безымянный_градиент_38"/>
    <linearGradient id="_Безымянный_градиент_11" data-name="Безымянный градиент 11" x1="516.63" y1="-986.11" x2="516.63" y2="-928.32" gradientTransform="translate(0 -919.56) scale(1 -1)" gradientUnits="userSpaceOnUse">
      <stop offset="0" stop-color="#c1cce6"/>
      <stop offset=".17" stop-color="#b6c0d8"/>
      <stop offset=".72" stop-color="#959fb2"/>
      <stop offset="1" stop-color="#8992a3"/>
    </linearGradient>
    <linearGradient id="_Безымянный_градиент_10" data-name="Безымянный градиент 10" x1="516.64" y1="-1019.05" x2="516.64" y2="-1009.13" gradientTransform="translate(0 -919.56) scale(1 -1)" gradientUnits="userSpaceOnUse">
      <stop offset="0" stop-color="#50545e"/>
      <stop offset=".33" stop-color="#474b58"/>
      <stop offset="1" stop-color="#383d4f"/>
    </linearGradient>
    <linearGradient id="_Безымянный_градиент_11-2" data-name="Безымянный градиент 11" x1="516.63" y1="-968.93" x2="516.63" y2="-919.56" xlink:href="#_Безымянный_градиент_11"/>
    <linearGradient id="_Безымянный_градиент_10-2" data-name="Безымянный градиент 10" x1="516.64" y1="-1009.13" x2="516.64" y2="-986.11" xlink:href="#_Безымянный_градиент_10"/>
    <linearGradient id="_Безымянный_градиент_13" data-name="Безымянный градиент 13" x1="516.63" y1="-1944.02" x2="516.63" y2="-1886.27" gradientTransform="translate(0 -919.56) scale(1 -1)" gradientUnits="userSpaceOnUse">
      <stop offset="0" stop-color="#50545e"/>
      <stop offset="0" stop-color="#50545e"/>
      <stop offset="1" stop-color="#414657"/>
    </linearGradient>
    <radialGradient id="_Безымянный_градиент_37-4" data-name="Безымянный градиент 37" cx="516.64" cy="-1928.6" fx="516.64" fy="-1928.6" r="109.95" gradientTransform="translate(0 -919.56) scale(1 -1)" xlink:href="#_Безымянный_градиент_37"/>
    <linearGradient id="_Безымянный_градиент_11-3" data-name="Безымянный градиент 11" x1="516.64" y1="-1863.25" x2="516.64" y2="-1853.33" xlink:href="#_Безымянный_градиент_11"/>
    <linearGradient id="_Безымянный_градиент_15" data-name="Безымянный градиент 15" x1="516.63" y1="-1952.82" x2="516.63" y2="-1903.41" gradientTransform="translate(0 -919.56) scale(1 -1)" gradientUnits="userSpaceOnUse">
      <stop offset="0" stop-color="#272a33"/>
      <stop offset=".62" stop-color="#313542"/>
      <stop offset="1" stop-color="#383d4d"/>
    </linearGradient>
    <linearGradient id="_Безымянный_градиент_16" data-name="Безымянный градиент 16" x1="516.64" y1="-1886.27" x2="516.64" y2="-1863.25" gradientTransform="translate(0 -919.56) scale(1 -1)" gradientUnits="userSpaceOnUse">
      <stop offset="0" stop-color="#c1cce6"/>
      <stop offset=".36" stop-color="#9ea8bf"/>
      <stop offset=".78" stop-color="#7b8599"/>
      <stop offset="1" stop-color="#6d778a"/>
    </linearGradient>
    <linearGradient id="_Безымянный_градиент_18-2" data-name="Безымянный градиент 18" x1="966.72" y1="-1436.21" x2="1024.47" y2="-1436.21" xlink:href="#_Безымянный_градиент_18"/>
    <linearGradient id="_Безымянный_градиент_19" data-name="Безымянный градиент 19" x1="933.77" y1="-1436.19" x2="943.69" y2="-1436.19" gradientTransform="translate(0 -919.56) scale(1 -1)" gradientUnits="userSpaceOnUse">
      <stop offset="0" stop-color="#7c8494"/>
      <stop offset=".43" stop-color="#8991a3"/>
      <stop offset="1" stop-color="#9fa8bd"/>
    </linearGradient>
    <linearGradient id="_Безымянный_градиент_20" data-name="Безымянный градиент 20" x1="983.89" y1="-1436.19" x2="1033.3" y2="-1436.19" gradientTransform="translate(0 -919.56) scale(1 -1)" gradientUnits="userSpaceOnUse">
      <stop offset="0" stop-color="#3c3e47"/>
      <stop offset="1" stop-color="#43474f"/>
    </linearGradient>
    <linearGradient id="_Безымянный_градиент_19-2" data-name="Безымянный градиент 19" x1="943.69" y1="-1436.19" x2="966.72" y2="-1436.19" xlink:href="#_Безымянный_градиент_19"/>
    <radialGradient id="_Безымянный_градиент_22" data-name="Безымянный градиент 22" cx="58.08" cy="-901.04" fx="58.08" fy="-901.04" r="302.6" gradientTransform="translate(0 -919.56) scale(1 -1)" gradientUnits="userSpaceOnUse">
      <stop offset="0" stop-color="#e0f2ff"/>
      <stop offset=".09" stop-color="#bacbd4"/>
      <stop offset=".23" stop-color="#8a989d"/>
      <stop offset=".37" stop-color="#606c6d"/>
      <stop offset=".5" stop-color="#3d4846"/>
      <stop offset=".63" stop-color="#222c27"/>
      <stop offset=".76" stop-color="#0f1811"/>
      <stop offset=".89" stop-color="#040c04"/>
      <stop offset="1" stop-color="#000800"/>
    </radialGradient>
    <radialGradient id="_Безымянный_градиент_22-2" data-name="Безымянный градиент 22" cx="913.33" cy="-794.4" fx="913.33" fy="-794.4" r="439.76" xlink:href="#_Безымянный_градиент_22"/>
    <radialGradient id="_Безымянный_градиент_22-3" data-name="Безымянный градиент 22" cx="181.79" cy="-1793.24" fx="181.79" fy="-1793.24" r="429.92" xlink:href="#_Безымянный_градиент_22"/>
    <radialGradient id="_Безымянный_градиент_22-4" data-name="Безымянный градиент 22" cx="847.21" cy="-1739.92" fx="847.21" fy="-1739.92" r="426.2" xlink:href="#_Безымянный_градиент_22"/>
  </defs>
  <g id="_Слой_1-2" data-name="Слой 1">
    <path class="cls-27" d="m690.65,8.8h-347.59l10.74,18.6c5.68,10.15,16.46,16.38,28.09,16.22h269.93c11.63.16,22.41-6.07,28.09-16.22l10.74-18.6Z"/>
    <path class="cls-23" d="m397.68,32.26h238.32c10.52,0,19.55-4.93,24.8-13.55l6-9.91h4.61c-.49.66-.93,1.35-1.34,2.06l-9.48,16.4c-5,8.96-14.51,14.45-24.77,14.3h-238.01c-10.27.16-19.8-5.33-24.81-14.3l-9.46-16.4c-.41-.71-.86-1.4-1.35-2.06h4.61l6,9.91c5.26,8.62,14.29,13.55,24.81,13.55h.07Z"/>
    <path class="cls-30" d="m7.89,344v347.61l18.6-10.74c10.15-5.68,16.37-16.46,16.21-28.09v-269.93c.16-11.63-6.06-22.41-16.21-28.08l-18.6-10.77Z"/>
    <path class="cls-2" d="m31.35,637v-238.36c0-10.52-4.93-19.54-13.55-24.8l-9.91-6v-4.61c.65.47,1.34.92,2.06,1.34l16.4,9.43c8.95,5,14.44,14.51,14.3,24.77v238.1c.14,10.26-5.35,19.77-14.3,24.77l-16.35,9.47c-.71.41-1.4.86-2.06,1.35v-4.61l9.91-6.05c8.62-5.26,13.55-14.29,13.55-24.81h-.05Z"/>
    <path class="cls-14" d="m1024.46,691.61v-347.61l-18.6,10.74c-10.15,5.68-16.37,16.46-16.21,28.09v269.96c-.16,11.63,6.06,22.41,16.21,28.08l18.6,10.74Z"/>
    <path class="cls-26" d="m1001,398.64v238.36c0,10.53,4.94,19.55,13.56,24.81l9.9,6v4.61c-.66-.48-1.34-.93-2.05-1.34l-16.41-9.44c-8.95-5.01-14.44-14.51-14.3-24.77v-238.1c-.14-10.26,5.35-19.76,14.3-24.77l16.41-9.47c.71-.41,1.39-.86,2.05-1.35v4.61l-9.9,6c-8.62,5.26-13.56,14.28-13.56,24.8v.05Z"/>
    <rect class="cls-12" x="99.49" y="99.49" width="834.28" height="834.28"/>
    <path class="cls-1" d="m8.8,8.8v337.39c-.1,3.96,2.03,7.63,5.5,9.53l16.41,9.47c4.39,2.52,8.23,5.9,11.29,9.94,4.85,6.48,7.44,14.37,7.37,22.46v238.09c.07,8.09-2.52,15.98-7.37,22.45-3.07,4.06-6.92,7.46-11.33,10l-16.37,9.42c-3.47,1.89-5.6,5.57-5.5,9.52v337.39l57.75-57.75V66.55L8.8,8.8Z"/>
    <polygon class="cls-16" points="99.49 516.63 99.49 99.49 89.58 89.57 89.58 516.63 89.58 943.7 99.49 933.77 99.49 516.63 99.49 516.63"/>
    <path class="cls-20" d="m8.8,343.39V8.8L0,0v346.19c-.09,6.23,2.84,12.12,7.85,15.81.66.49,1.35.93,2.06,1.34l16.4,9.47c8.95,5.02,14.43,14.52,14.3,24.78v238.09c.14,10.26-5.35,19.76-14.3,24.77l-16.4,9.47c-.71.41-1.4.86-2.06,1.35-5.01,3.69-7.94,9.57-7.85,15.8v346.19l8.8-8.8v-337.39c-.1-3.95,2.03-7.63,5.5-9.52l16.41-9.47c4.41-2.54,8.26-5.94,11.33-10,4.85-6.47,7.44-14.36,7.37-22.45v-238.04c.05-8.1-2.55-15.99-7.41-22.46-3.07-4.04-6.92-7.42-11.33-9.94l-16.37-9.47c-3.47-1.9-5.6-5.57-5.5-9.53v-2.8Z"/>
    <polygon class="cls-9" points="89.58 516.63 89.58 89.57 66.56 66.55 66.56 966.71 89.58 943.7 89.58 516.63 89.58 516.63"/>
    <path class="cls-31" d="m342.84,1025.42h347.58l-10.73-18.6c-5.68-10.16-16.47-16.38-28.1-16.22h-269.92c-11.63-.16-22.42,6.06-28.09,16.22l-10.74,18.6h0Z"/>
    <path class="cls-24" d="m1024.46,8.8h-337.38c-3.96-.1-7.64,2.03-9.53,5.51l-9.47,16.4c-2.54,4.41-5.94,8.26-10,11.33-6.47,4.85-14.36,7.44-22.45,7.37h-238.04c-8.1.06-15.99-2.54-22.46-7.41-4.04-3.07-7.42-6.92-9.94-11.33l-9.47-16.4c-1.89-3.48-5.57-5.61-9.53-5.51H8.8l57.75,57.79h900.17l57.74-57.75Z"/>
    <polygon class="cls-25" points="516.64 99.49 933.77 99.49 943.69 89.57 516.64 89.57 89.58 89.57 99.49 99.49 516.64 99.49 516.64 99.49"/>
    <path class="cls-6" d="m689.87,8.8h334.59L1033.26,0h-346.18c-6.23-.09-12.12,2.83-15.81,7.85-.49.66-.94,1.34-1.35,2.05l-9.47,16.41c-5.01,8.95-14.51,14.44-24.77,14.3h-238.09c-10.26.14-19.77-5.35-24.77-14.3l-9.48-16.41c-.41-.71-.85-1.39-1.34-2.05C358.31,2.83,352.42-.09,346.19,0H0l8.8,8.8h337.39c3.96-.1,7.64,2.03,9.53,5.51l9.47,16.4c2.52,4.39,5.9,8.23,9.94,11.29,6.48,4.85,14.37,7.44,22.46,7.37h238.09c8.09.07,15.98-2.52,22.45-7.37,4.06-3.07,7.46-6.92,10-11.33l9.47-16.4c1.89-3.48,5.57-5.61,9.53-5.51l2.74.04Z"/>
    <polygon class="cls-3" points="516.64 89.57 943.69 89.57 966.72 66.55 66.55 66.55 89.58 89.57 516.64 89.57 516.64 89.57"/>
    <path class="cls-8" d="m1024.46,1024.46h-337.38c-3.96.1-7.64-2.02-9.53-5.5l-9.47-16.4c-2.54-4.41-5.94-8.27-10-11.34-6.47-4.85-14.36-7.44-22.45-7.37h-238.04c-8.09-.07-15.98,2.52-22.46,7.37-4.04,3.07-7.42,6.93-9.94,11.34l-9.47,16.4c-1.89,3.48-5.57,5.6-9.53,5.5H8.8l57.75-57.75h900.17l57.74,57.75Z"/>
    <path class="cls-19" d="m635.81,1002h-238.35c-10.52,0-19.55,4.93-24.81,13.55l-6,9.91h-4.65c.49-.66.93-1.35,1.34-2.06l9.48-16.4c5-8.96,14.51-14.45,24.77-14.3h238.09c10.26-.14,19.77,5.35,24.77,14.3l9.47,16.4c.41.71.86,1.4,1.35,2.06h-4.61l-6-9.91c-5.26-8.62-14.28-13.55-24.8-13.55h-.05Z"/>
    <polygon class="cls-5" points="516.64 933.77 933.77 933.77 943.69 943.69 516.64 943.69 89.58 943.69 99.49 933.77 516.64 933.77 516.64 933.77"/>
    <path class="cls-29" d="m689.87,1024.46h334.59l8.8,8.8h-346.18c-6.23.09-12.12-2.83-15.81-7.84-.49-.66-.94-1.35-1.35-2.06l-9.47-16.4c-5-8.95-14.51-14.44-24.77-14.3h-238.09c-10.26-.15-19.77,5.34-24.77,14.3l-9.48,16.4c-.41.71-.85,1.4-1.34,2.06-3.69,5.01-9.58,7.93-15.81,7.84H0l8.8-8.8h337.39c3.96.1,7.64-2.02,9.53-5.5l9.47-16.4c2.52-4.41,5.9-8.27,9.94-11.34,6.48-4.85,14.37-7.44,22.46-7.37h238.09c8.09-.07,15.98,2.52,22.45,7.37,4.06,3.07,7.46,6.93,10,11.34l9.47,16.4c1.89,3.48,5.57,5.6,9.53,5.5h2.74Z"/>
    <polygon class="cls-17" points="516.64 943.69 943.69 943.69 966.72 966.71 66.55 966.71 89.58 943.69 516.64 943.69 516.64 943.69"/>
    <path class="cls-21" d="m1024.46,8.8v337.39c.1,3.96-2.02,7.64-5.5,9.53l-16.4,9.47c-4.41,2.52-8.27,5.9-11.34,9.94-4.85,6.48-7.44,14.37-7.37,22.46v238.09c-.07,8.09,2.52,15.98,7.37,22.45,3.07,4.06,6.93,7.46,11.34,10l16.4,9.47c3.48,1.89,5.6,5.57,5.5,9.52v337.39l-57.74-57.75V66.55l57.74-57.75Z"/>
    <polygon class="cls-18" points="933.77 516.63 933.77 99.49 943.69 89.57 943.69 516.63 943.69 943.7 933.77 933.77 933.77 516.63 933.77 516.63"/>
    <path class="cls-7" d="m1024.46,343.39V8.8L1033.26,0v346.19c.09,6.23-2.83,12.11-7.84,15.81-.66.48-1.34.92-2.05,1.34l-16.37,9.47c-8.96,5.01-14.45,14.52-14.3,24.78v238.09c-.14,10.26,5.35,19.77,14.3,24.77l16.41,9.47c.71.42,1.39.87,2.05,1.35,5.01,3.69,7.93,9.58,7.84,15.8v346.19l-8.8-8.8v-337.39c.1-3.95-2.02-7.63-5.5-9.52l-16.4-9.47c-4.41-2.54-8.27-5.94-11.34-10-4.85-6.47-7.44-14.36-7.37-22.45v-238.04c-.07-8.09,2.52-15.98,7.37-22.46,3.07-4.04,6.93-7.42,11.34-9.94l16.4-9.47c3.48-1.89,5.6-5.57,5.5-9.53v-2.8h-.04Z"/>
    <polygon class="cls-22" points="943.69 516.63 943.69 89.57 966.72 66.55 966.72 966.71 943.69 943.7 943.69 516.63 943.69 516.63"/>
    <polygon class="cls-4" points="66.56 289.16 62.24 69.39 15.06 15.07 69.39 62.24 288.79 66.55 71.59 71.59 66.56 289.16 66.56 289.16"/>
    <polygon class="cls-13" points="966.72 289.16 971.03 69.39 1018.2 15.07 963.87 62.24 744.48 66.55 961.67 71.59 966.72 289.16 966.72 289.16"/>
    <polygon class="cls-11" points="66.56 744.1 62.24 963.87 15.07 1018.2 69.39 971.03 288.79 966.71 71.59 961.67 66.56 744.1 66.56 744.1"/>
    <polygon class="cls-28" points="966.72 744.1 971.03 963.87 1018.2 1018.2 963.87 971.03 744.48 966.71 961.67 961.67 966.72 744.1 966.72 744.1"/>
    <rect class="cls-15" x="99.49" y="99.49" width="834.28" height="834.28"/>
    <path class="cls-10" d="m745.37,774.6c1.74-34.01,10.28-200.6,10.28-200.6,0,0,6.87-83.31-30.92-102s-97.93-37.4-97.93-37.4l-25.77-34-6.87-1.7-6.88-15.31-6.87-5.1,3.44-49.3s12,8.5,15.46,0,12-32.31,10.31-37.41c-1.69-5.1-3.44-11.9-13.75-6.8,6.88-15.3,8.59-13.6,8.59-22.1s-1.71-13.6,0-22.11c.89-4.59,2.04-9.14,3.44-13.6,0,0-15.46-30.6-22.33-30.6-3.44-8.5-29.21-37.41-49.83-39.11-20.62-1.7-48.1-3.4-51.54,0s-6.87,1.7-10.31,5.1c-2.67,2.5-5.54,4.78-8.59,6.81,0,0-5.15-1.7-8.59,6.8s-6.87,27.16-10.34,28.83c-3.47,1.67-8.59,8.5-8.59,18.7s-3.43,27.21,0,30.61c3.43,3.4,5.16,13.6,5.16,13.6l1.72,13.6s-10.31-1.7-8.59,5.1c1.72,6.8,6.87,13.6,6.87,18.7s1.72,22.11,10.31,25.51c0,0,3.43,27.2,12,35.7s8.59,13.6,8.59,13.6l.91,9.38v15.31l-5.15,15.3-24.06,25.5-73.87,37.39s-14.6,11.05-19.76,14.45c-5.16,3.4-15.46,15.3-17.18,35.7-1.72,20.4-6.87,59.51-6.87,59.51l-18.9,200.63s-20.62,68-27.49,113.91c-1.17,7.84-2.7,16.91-4.42,26.57h438.22c4.45-15.48,11.43-40.09,12.82-46.95,1.72-8.5,15.54-78.21,17.28-112.22Z"/>
  </g>
</svg>